# This file uses centimeters as units for non-parametric coordinates.

mtllib Centre_Platfrom.mtl
g default
v -8.678437 -0.409156 -0.786601
v -9.439762 -0.409156 -1.834477
v -10.561478 -0.409156 -2.482099
v -11.849627 -0.409156 -2.617490
v -13.081479 -0.409156 -2.217237
v -14.044034 -0.409156 -1.350549
v -14.570858 -0.409156 -0.167284
v -14.570858 -0.409156 1.127962
v -14.044034 -0.409156 2.311227
v -13.081479 -0.409156 3.177915
v -11.849627 -0.409156 3.578168
v -10.561478 -0.409156 3.442779
v -9.439762 -0.409156 2.795156
v -8.678436 -0.409156 1.747280
v -8.409139 -0.409156 0.480339
v -9.219137 0.069632 -0.542951
v -9.834050 0.069632 -1.389307
v -10.740044 0.069632 -1.912383
v -11.780466 0.069632 -2.021736
v -12.775416 0.069632 -1.698457
v -13.552859 0.069632 -0.998445
v -13.978367 0.069632 -0.042737
v -13.978367 0.069632 1.003415
v -13.552859 0.069632 1.959123
v -12.775416 0.069632 2.659136
v -11.780466 0.069632 2.982414
v -10.740045 0.069632 2.873062
v -9.834050 0.069632 2.349986
v -9.219137 0.069632 1.503631
v -9.001630 0.069632 0.480339
v -9.985254 0.069632 -0.201855
v -10.395196 0.069632 -0.766091
v -10.999191 0.069632 -1.114809
v -11.692806 0.069632 -1.187711
v -12.356106 0.069632 -0.972192
v -12.874402 0.069632 -0.505517
v -13.158073 0.069632 0.131622
v -13.158073 0.069632 0.829056
v -12.874402 0.069632 1.466195
v -12.356107 0.069632 1.932870
v -11.692807 0.069632 2.148389
v -10.999191 0.069632 2.075488
v -10.395196 0.069632 1.726770
v -9.985254 0.069632 1.162534
v -9.840250 0.069632 0.480339
v -10.131783 -0.019263 -0.135826
v -10.502048 -0.019263 -0.645451
v -10.859754 -0.019263 -0.251928
v -10.618917 -0.019263 0.079556
v -11.047583 -0.019263 -0.960417
v -11.214597 -0.019263 -0.456796
v -11.674064 -0.019263 -1.026263
v -11.622089 -0.019263 -0.499626
v -12.273164 -0.019263 -0.831603
v -12.011772 -0.019263 -0.373010
v -12.741294 -0.019263 -0.410097
v -12.316266 -0.019263 -0.098843
v -12.997511 -0.019263 0.165373
v -12.482922 -0.019263 0.275471
v -12.997511 -0.019263 0.795305
v -12.482922 -0.019263 0.685207
v -12.741294 -0.019263 1.370776
v -12.316266 -0.019263 1.059521
v -12.273164 -0.019263 1.792282
v -12.011772 -0.019263 1.333688
v -11.674064 -0.019263 1.986941
v -11.622089 -0.019263 1.460304
v -11.047584 -0.019263 1.921096
v -11.214597 -0.019263 1.417475
v -10.502048 -0.019263 1.606130
v -10.859754 -0.019263 1.212606
v -10.131783 -0.019263 1.096505
v -10.618917 -0.019263 0.881122
v -10.000813 -0.019263 0.480339
v -10.533728 -0.019263 0.480339
v -10.751370 0.039056 0.139242
v -10.956342 0.039056 -0.142876
v -11.517488 0.039056 0.480339
v -11.258340 0.039056 -0.317235
v -11.605146 0.039056 -0.353686
v -11.936797 0.039056 -0.245926
v -12.195945 0.039056 -0.012589
v -12.337782 0.039056 0.305980
v -12.337782 0.039056 0.654698
v -12.195945 0.039056 0.973267
v -11.936797 0.039056 1.206605
v -11.605146 0.039056 1.314364
v -11.258340 0.039056 1.277913
v -10.956342 0.039056 1.103555
v -10.751370 0.039056 0.821436
v -10.678868 0.039056 0.480339
vt 0.237626 0.678117
vt 0.119064 0.602669
vt 0.175659 0.547204
vt 0.265805 0.604671
vt 0.041387 0.485434
vt 0.116539 0.457543
vt 0.017844 0.346783
vt 0.098516 0.351313
vt 0.052376 0.210714
vt 0.124591 0.246876
vt 0.138644 0.100781
vt 0.190047 0.162226
vt 0.261157 0.035893
vt 0.283298 0.111541
vt 0.399356 0.025475
vt 0.388592 0.104199
vt 0.530383 0.072601
vt 0.488175 0.140689
vt 0.631302 0.169446
vt 0.564802 0.215197
vt 0.684506 0.299458
vt 0.605101 0.314995
vt 0.680520 0.440203
vt 0.601956 0.422870
vt 0.619867 0.567298
vt 0.555763 0.520129
vt 0.512840 0.658719
vt 0.474383 0.589868
vt 0.377288 0.698765
vt 0.371643 0.619393
vt 0.235720 0.485578
vt 0.295520 0.523913
vt 0.196471 0.425681
vt 0.184498 0.354650
vt 0.201748 0.284708
vt 0.245121 0.227971
vt 0.306960 0.194200
vt 0.376871 0.189198
vt 0.442904 0.213650
vt 0.493675 0.263559
vt 0.520377 0.330350
vt 0.518276 0.402503
vt 0.487608 0.467466
vt 0.433643 0.513993
vt 0.365595 0.533976
vt 0.118927 0.964763
vt 0.248943 0.472164
vt 0.102570 0.890633
vt 0.138229 0.913553
vt 0.214081 0.418841
vt 0.079305 0.855173
vt 0.203448 0.355579
vt 0.072455 0.813314
vt 0.218773 0.293232
vt 0.083194 0.772295
vt 0.257297 0.242651
vt 0.109654 0.739202
vt 0.312178 0.212519
vt 0.147270 0.719750
vt 0.374280 0.208105
vt 0.189513 0.717267
vt 0.432928 0.229908
vt 0.229137 0.732211
vt 0.478007 0.274402
vt 0.259268 0.761999
vt 0.501725 0.333924
vt 0.274700 0.801494
vt 0.499868 0.398197
vt 0.272756 0.843870
vt 0.472626 0.456027
vt 0.253763 0.881800
vt 0.424712 0.497449
vt 0.221002 0.908718
vt 0.364271 0.515241
vt 0.180132 0.919965
vt 0.143980 0.898569
vt 0.113987 0.879303
vt 0.174205 0.818267
vt 0.094421 0.849482
vt 0.088655 0.814267
vt 0.097677 0.779748
vt 0.119929 0.751887
vt 0.151546 0.735478
vt 0.187103 0.733420
vt 0.220409 0.746009
vt 0.245745 0.771085
vt 0.258715 0.804321
vt 0.257074 0.839972
vt 0.241101 0.871874
vt 0.213548 0.894503
vt 0.179192 0.903917
vt 0.183335 0.974584
vt 0.302048 0.506276
vt 0.246167 0.957352
vt 0.296529 0.916076
vt 0.325713 0.857919
vt 0.328686 0.792951
vt 0.304955 0.732409
vt 0.258639 0.686755
vt 0.197758 0.663862
vt 0.132824 0.667656
vt 0.075037 0.697474
vt 0.034363 0.748192
vt 0.017844 0.811069
vt 0.028356 0.875243
vt 0.064106 0.929614
vn 0.573721 0.778082 -0.255797
vn 0.419191 0.778910 -0.466452
vn 0.420000 0.778906 -0.465731
vn 0.573965 0.778081 -0.255254
vn 0.192605 0.780121 -0.595243
vn 0.193921 0.780114 -0.594825
vn -0.066003 0.781500 -0.620404
vn -0.064577 0.781493 -0.620564
vn -0.311726 0.782807 -0.538554
vn -0.310653 0.782801 -0.539181
vn -0.502662 0.783820 -0.364632
vn -0.502171 0.783818 -0.365314
vn -0.606770 0.784372 -0.128805
vn -0.606709 0.784371 -0.129096
vn -0.606770 0.784372 0.128805
vn -0.606709 0.784372 0.129096
vn -0.502662 0.783820 0.364632
vn -0.502171 0.783818 0.365314
vn -0.311726 0.782807 0.538553
vn -0.310653 0.782802 0.539181
vn -0.066004 0.781500 0.620404
vn -0.064577 0.781493 0.620563
vn 0.192605 0.780121 0.595243
vn 0.193920 0.780114 0.594825
vn 0.419191 0.778910 0.466452
vn 0.420000 0.778906 0.465731
vn 0.573721 0.778083 0.255796
vn 0.573964 0.778082 0.255253
vn 0.628525 0.777789 -0.000000
vn 0.628525 0.777789 -0.000000
vn 0.000000 1.000000 0.000000
vn 0.000000 1.000000 0.000000
vn 0.000000 1.000000 0.000000
vn 0.000000 1.000000 0.000000
vn 0.000000 1.000000 -0.000000
vn 0.000000 1.000000 -0.000000
vn 0.000000 1.000000 0.000000
vn 0.000000 1.000000 0.000000
vn 0.000000 1.000000 0.000000
vn 0.000000 1.000000 0.000000
vn 0.000000 1.000000 0.000000
vn 0.000000 1.000000 0.000000
vn 0.000000 1.000000 0.000000
vn 0.000000 1.000000 0.000000
vn 0.000000 1.000000 -0.000000
vn 0.000000 1.000000 -0.000000
vn 0.000000 1.000000 -0.000000
vn 0.000000 1.000000 -0.000000
vn 0.000000 1.000000 -0.000000
vn 0.000000 1.000000 -0.000000
vn 0.000000 1.000000 -0.000000
vn 0.000000 1.000000 -0.000000
vn 0.000000 1.000000 0.000000
vn 0.000000 1.000000 0.000000
vn 0.000000 1.000000 0.000000
vn 0.000000 1.000000 -0.000000
vn 0.000000 1.000000 -0.000000
vn 0.000000 1.000000 -0.000000
vn 0.000000 1.000000 0.000000
vn 0.000000 1.000000 0.000000
vn 0.000000 1.000000 0.000000
vn 0.000000 1.000000 0.000000
vn 0.000000 1.000000 0.000000
vn 0.000000 1.000000 0.000000
vn 0.000000 1.000000 0.000000
vn 0.000000 1.000000 0.000000
vn 0.000000 1.000000 0.000000
vn 0.000000 1.000000 0.000000
vn 0.000000 1.000000 -0.000000
vn 0.000000 1.000000 -0.000000
vn 0.000000 1.000000 -0.000000
vn 0.000000 1.000000 -0.000000
vn 0.000000 1.000000 -0.000000
vn 0.000000 1.000000 -0.000000
vn 0.000000 1.000000 0.000000
vn 0.000000 1.000000 0.000000
vn 0.000000 1.000000 0.000000
vn 0.000000 1.000000 0.000000
vn 0.000000 1.000000 0.000000
vn 0.000000 1.000000 0.000000
vn 0.000000 1.000000 -0.000000
vn 0.000000 1.000000 -0.000000
vn 0.000000 1.000000 -0.000000
vn 0.000000 1.000000 -0.000000
vn 0.000000 1.000000 0.000000
vn 0.000000 1.000000 0.000000
vn 0.000000 1.000000 0.000000
vn 0.000000 1.000000 0.000000
vn 0.000000 1.000000 0.000000
vn 0.000000 1.000000 0.000000
vn 0.000000 1.000000 0.000000
vn 0.000000 1.000000 0.000000
vn 0.000000 1.000000 0.000000
vn 0.000000 1.000000 -0.000000
vn 0.000000 1.000000 -0.000000
vn 0.000000 1.000000 0.000000
vn 0.000000 1.000000 0.000000
vn 0.000000 1.000000 0.000000
vn 0.000000 1.000000 0.000000
vn 0.000000 1.000000 0.000000
vn 0.000000 1.000000 0.000000
vn 0.000000 1.000000 0.000000
vn 0.000000 1.000000 0.000000
vn 0.000000 1.000000 -0.000000
vn 0.000000 1.000000 -0.000000
vn 0.000000 1.000000 0.000000
vn -0.442046 0.875063 0.197129
vn -0.322804 0.875616 0.359297
vn -0.323509 0.875613 0.358670
vn -0.442259 0.875062 0.196655
vn -0.148167 0.876424 0.458179
vn -0.149312 0.876418 0.457817
vn 0.050853 0.877340 0.477167
vn 0.049613 0.877334 0.477308
vn 0.239662 0.878207 0.413902
vn 0.238731 0.878203 0.414448
vn 0.386179 0.878877 0.280072
vn 0.385753 0.878875 0.280664
vn 0.465996 0.879242 0.098904
vn 0.465943 0.879242 0.099155
vn 0.465995 0.879242 -0.098904
vn 0.465942 0.879242 -0.099155
vn 0.386179 0.878878 -0.280072
vn 0.385753 0.878876 -0.280664
vn 0.239662 0.878207 -0.413901
vn 0.238731 0.878203 -0.414447
vn 0.050853 0.877340 -0.477166
vn 0.049613 0.877335 -0.477307
vn -0.148166 0.876424 -0.458179
vn -0.149311 0.876419 -0.457817
vn -0.322803 0.875617 -0.359296
vn -0.323508 0.875614 -0.358669
vn -0.442046 0.875063 -0.197129
vn -0.442259 0.875062 -0.196655
vn -0.484365 0.874866 0.000000
vn -0.484365 0.874866 0.000000
vn 0.340230 0.928019 -0.151741
vn 0.248371 0.928366 -0.276493
vn 0.248949 0.928364 -0.275980
vn 0.340404 0.928018 -0.151354
vn 0.113935 0.928872 -0.352442
vn 0.114872 0.928869 -0.352147
vn -0.039136 0.929447 -0.366874
vn -0.038123 0.929443 -0.366991
vn -0.184221 0.929990 -0.318091
vn -0.183462 0.929987 -0.318538
vn -0.296721 0.930408 -0.215168
vn -0.296374 0.930407 -0.215651
vn -0.357974 0.930636 -0.075970
vn -0.357931 0.930636 -0.076175
vn -0.357972 0.930637 0.075969
vn -0.357929 0.930637 0.076174
vn -0.296720 0.930409 0.215167
vn -0.296373 0.930408 0.215650
vn -0.184222 0.929990 0.318091
vn -0.183462 0.929987 0.318538
vn -0.039137 0.929447 0.366874
vn -0.038123 0.929444 0.366990
vn 0.113935 0.928872 0.352442
vn 0.114872 0.928869 0.352147
vn 0.248371 0.928366 0.276493
vn 0.248949 0.928364 0.275980
vn 0.340229 0.928019 0.151741
vn 0.340403 0.928018 0.151353
vn 0.372841 0.927895 -0.000000
vn 0.372841 0.927895 -0.000000
s 1
g Centre_Platform
usemtl initialShadingGroup
f 1/1/1 2/2/2 17/3/3 16/4/4
f 2/2/2 3/5/5 18/6/6 17/3/3
f 3/5/5 4/7/7 19/8/8 18/6/6
f 4/7/7 5/9/9 20/10/10 19/8/8
f 5/9/9 6/11/11 21/12/12 20/10/10
f 6/11/11 7/13/13 22/14/14 21/12/12
f 7/13/13 8/15/15 23/16/16 22/14/14
f 8/15/15 9/17/17 24/18/18 23/16/16
f 9/17/17 10/19/19 25/20/20 24/18/18
f 10/19/19 11/21/21 26/22/22 25/20/20
f 11/21/21 12/23/23 27/24/24 26/22/22
f 12/23/23 13/25/25 28/26/26 27/24/24
f 13/25/25 14/27/27 29/28/28 28/26/26
f 14/27/27 15/29/29 30/30/30 29/28/28
f 15/29/29 1/1/1 16/4/4 30/30/30
s 2
f 16/4/31 17/3/32 32/31/33 31/32/34
f 17/3/32 18/6/35 33/33/36 32/31/33
f 18/6/35 19/8/37 34/34/38 33/33/36
f 19/8/37 20/10/39 35/35/40 34/34/38
f 20/10/39 21/12/41 36/36/42 35/35/40
f 21/12/41 22/14/43 37/37/44 36/36/42
f 22/14/43 23/16/45 38/38/46 37/37/44
f 23/16/45 24/18/47 39/39/48 38/38/46
f 24/18/47 25/20/49 40/40/50 39/39/48
f 25/20/49 26/22/51 41/41/52 40/40/50
f 26/22/51 27/24/53 42/42/54 41/41/52
f 27/24/53 28/26/55 43/43/56 42/42/54
f 28/26/55 29/28/57 44/44/58 43/43/56
f 29/28/57 30/30/59 45/45/60 44/44/58
f 30/30/59 16/4/31 31/32/34 45/45/60
s 3
f 46/46/61 47/106/62 48/48/63 49/49/64
f 47/106/62 50/105/65 51/51/66 48/48/63
f 50/105/65 52/104/67 53/53/68 51/51/66
f 52/104/67 54/103/69 55/55/70 53/53/68
f 54/103/69 56/102/71 57/57/72 55/55/70
f 56/102/71 58/101/73 59/59/74 57/57/72
f 58/101/73 60/100/75 61/61/76 59/59/74
f 60/100/75 62/99/77 63/63/78 61/61/76
f 62/99/77 64/98/79 65/65/80 63/63/78
f 64/98/79 66/97/81 67/67/82 65/65/80
f 66/97/81 68/96/83 69/69/84 67/67/82
f 68/96/83 70/95/85 71/71/86 69/69/84
f 70/95/85 72/94/87 73/73/88 71/71/86
f 72/94/87 74/92/89 75/75/90 73/73/88
f 74/92/89 46/46/61 49/49/64 75/75/90
s 4
f 76/76/91 77/77/92 78/78/93
f 77/77/92 79/79/94 78/78/93
f 79/79/94 80/80/95 78/78/93
f 80/80/95 81/81/96 78/78/93
f 81/81/96 82/82/97 78/78/93
f 82/82/97 83/83/98 78/78/93
f 83/83/98 84/84/99 78/78/93
f 84/84/99 85/85/100 78/78/93
f 85/85/100 86/86/101 78/78/93
f 86/86/101 87/87/102 78/78/93
f 87/87/102 88/88/103 78/78/93
f 88/88/103 89/89/104 78/78/93
f 89/89/104 90/90/105 78/78/93
f 90/90/105 91/91/106 78/78/93
f 91/91/106 76/76/91 78/78/93
s 5
f 31/32/107 32/31/108 47/47/109 46/93/110
f 32/31/108 33/33/111 50/50/112 47/47/109
f 33/33/111 34/34/113 52/52/114 50/50/112
f 34/34/113 35/35/115 54/54/116 52/52/114
f 35/35/115 36/36/117 56/56/118 54/54/116
f 36/36/117 37/37/119 58/58/120 56/56/118
f 37/37/119 38/38/121 60/60/122 58/58/120
f 38/38/121 39/39/123 62/62/124 60/60/122
f 39/39/123 40/40/125 64/64/126 62/62/124
f 40/40/125 41/41/127 66/66/128 64/64/126
f 41/41/127 42/42/129 68/68/130 66/66/128
f 42/42/129 43/43/131 70/70/132 68/68/130
f 43/43/131 44/44/133 72/72/134 70/70/132
f 44/44/133 45/45/135 74/74/136 72/72/134
f 45/45/135 31/32/107 46/93/110 74/74/136
s 6
f 49/49/137 48/48/138 77/77/139 76/76/140
f 48/48/138 51/51/141 79/79/142 77/77/139
f 51/51/141 53/53/143 80/80/144 79/79/142
f 53/53/143 55/55/145 81/81/146 80/80/144
f 55/55/145 57/57/147 82/82/148 81/81/146
f 57/57/147 59/59/149 83/83/150 82/82/148
f 59/59/149 61/61/151 84/84/152 83/83/150
f 61/61/151 63/63/153 85/85/154 84/84/152
f 63/63/153 65/65/155 86/86/156 85/85/154
f 65/65/155 67/67/157 87/87/158 86/86/156
f 67/67/157 69/69/159 88/88/160 87/87/158
f 69/69/159 71/71/161 89/89/162 88/88/160
f 71/71/161 73/73/163 90/90/164 89/89/162
f 73/73/163 75/75/165 91/91/166 90/90/164
f 75/75/165 49/49/137 76/76/140 91/91/166
