# This file uses centimeters as units for non-parametric coordinates.

mtllib Ground.mtl
g default
v -28.078316 -0.238283 13.620012
v -12.109055 -0.238283 10.476889
v -12.074070 -0.238283 7.848890
v -12.109055 -0.246082 5.466302
v -12.109055 -0.238283 0.000000
v -12.141378 -0.248383 -4.933280
v -12.047720 -0.238283 -7.244490
v -28.078316 -0.238283 -11.092433
v -9.729197 -0.294829 5.466303
v -9.072573 -0.251643 0.000001
v -9.769855 -0.296153 -4.717077
v -7.074156 -0.546026 4.311778
v -7.074156 -0.295457 0.000000
v -7.074156 -0.573179 -4.285679
v -9.025042 -0.238283 10.605495
v -9.767038 -0.261512 7.790624
v -9.794792 -0.269238 -7.242148
v -9.025042 -0.238283 -10.605495
v -7.097765 -0.248618 10.605495
v -7.097765 -0.395059 7.474206
v -7.097765 -0.403665 -7.438448
v -7.097765 -0.248112 -10.605495
v -14.637846 -0.238283 13.626882
v -14.637846 -0.238283 -11.092441
v -4.757414 -0.741948 4.612615
v -4.757414 -0.328211 0.000001
v -4.757414 -0.746803 -4.586516
v -4.781023 -0.259711 10.605495
v -4.781023 -0.511198 7.474206
v -4.781023 -0.506904 -7.438448
v -4.781023 -0.258946 -10.605495
v -1.681383 -0.603601 5.466302
v -1.681383 -0.275408 -0.000000
v -1.681383 -0.463328 -5.440204
v -1.704992 -0.450522 7.474206
v 1.768709 -0.279513 5.466302
v 1.768709 -0.238283 0.000000
v 1.768709 -0.245747 -5.440204
v -17.146862 -0.238283 13.626882
v -17.146862 -0.238283 -11.092442
v -20.048344 -0.238283 13.626882
v -20.048344 -0.238283 -11.092441
v -23.010969 -0.238283 13.626881
v -23.010969 -0.238283 -11.092437
v -28.078316 -0.238283 -4.893620
v -23.010969 -0.126753 -4.893620
v -20.048344 -0.547460 -4.893620
v -17.146862 -0.887965 -4.893620
v -14.637847 -0.429477 -4.893620
v -28.078316 -0.238283 5.253959
v -23.010969 -0.268584 5.253959
v -20.048344 -0.547224 5.253959
v -17.146862 -0.788423 5.253959
v -14.637847 -0.410388 5.253959
v -28.078316 -0.238283 0.207446
v -23.010969 0.017059 0.207446
v -20.048344 -0.291325 0.207446
v -17.146862 -0.291325 0.207446
v -14.637847 -0.242713 0.207446
vt 0.314429 0.038138
vt 0.315263 0.196557
vt 0.121584 0.197749
vt 0.120648 0.039268
vt 0.469744 0.537277
vt 0.640684 0.536486
vt 0.641062 0.610884
vt 0.470264 0.632237
vt 0.315531 0.537082
vt 0.322683 0.611151
vt 0.605434 0.694181
vt 0.470556 0.694762
vt 0.336526 0.695472
vt 0.713788 0.609335
vt 0.801926 0.632091
vt 0.802339 0.692373
vt 0.704309 0.692886
vt 0.138639 0.635304
vt 0.243707 0.610750
vt 0.238038 0.695118
vt 0.138888 0.695598
vt 0.715195 0.537192
vt 0.243299 0.540316
vt 0.122713 0.459805
vt 0.316350 0.459039
vt 0.475802 0.458133
vt 0.633680 0.457427
vt 0.895298 0.456027
vt 0.797331 0.535650
vt 0.615249 0.766595
vt 0.470893 0.767247
vt 0.327415 0.767922
vt 0.802801 0.764848
vt 0.704594 0.765387
vt 0.238462 0.767593
vt 0.139187 0.768093
vt 0.642227 0.862587
vt 0.471264 0.863529
vt 0.301266 0.864252
vt 0.705134 0.861624
vt 0.301601 0.972217
vt 0.642468 0.970631
vt 0.471714 0.971408
vt 0.315990 0.380224
vt 0.122453 0.381282
vt 0.315504 0.289442
vt 0.121877 0.290463
vt 0.473846 0.037393
vt 0.474432 0.195860
vt 0.474933 0.288720
vt 0.475376 0.379577
vt 0.893950 0.194119
vt 0.632256 0.195172
vt 0.631566 0.036747
vt 0.893017 0.035682
vt 0.894445 0.286786
vt 0.632802 0.287922
vt 0.894829 0.377554
vt 0.633275 0.378691
vn -0.022371 0.999686 -0.011295
vn 0.020760 0.999730 -0.010451
vn 0.019248 0.999815 0.000205
vn -0.011004 0.999899 -0.008995
vn -0.021837 0.999762 0.000095
vn -0.024477 0.999700 0.000622
vn 0.039917 0.999202 0.001234
vn 0.040556 0.999177 -0.001195
vn -0.025019 0.999687 -0.000356
vn 0.044390 0.999002 -0.005023
vn 0.062200 0.997863 0.020026
vn 0.057338 0.998353 -0.001912
vn 0.060943 0.997961 -0.018992
vn -0.018299 0.999824 -0.004110
vn -0.021379 0.999765 -0.003613
vn 0.028209 0.998440 -0.048177
vn 0.048324 0.997690 -0.047742
vn -0.021286 0.999766 0.003746
vn -0.016150 0.999858 0.004813
vn 0.048424 0.997636 0.048762
vn 0.028598 0.998448 0.047791
vn -0.028034 0.999607 0.000154
vn -0.028034 0.999607 0.000154
vn -0.039395 0.999148 0.012308
vn -0.038997 0.999239 0.000537
vn -0.037624 0.999292 -0.000732
vn -0.037496 0.999297 -0.000267
vn -0.046605 0.998771 -0.016866
vn -0.028034 0.999607 0.000154
vn 0.001785 0.999660 0.026007
vn -0.014492 0.999889 0.003321
vn -0.025286 0.999677 -0.002401
vn 0.015773 0.997593 -0.067518
vn 0.016779 0.997367 -0.070556
vn -0.033912 0.996588 0.075255
vn -0.027936 0.996961 0.072725
vn -0.046171 0.998833 0.014159
vn -0.047972 0.998821 0.007406
vn -0.056293 0.998136 0.023582
vn -0.034481 0.996304 -0.078678
vn -0.045032 0.998930 0.010538
vn -0.054651 0.998132 0.027312
vn -0.044603 0.998973 0.007970
vn -0.012757 0.999912 0.003741
vn -0.010874 0.997292 0.072731
vn 0.076476 0.997069 -0.002166
vn 0.064699 0.996836 0.046176
vn -0.029227 0.999548 0.006985
vn 0.022496 0.999723 0.006960
vn 0.080749 0.996734 0.001099
vn -0.016307 0.999853 -0.005350
vn 0.019246 0.999778 -0.008620
vn 0.020517 0.999751 0.008803
vn -0.006486 0.999934 0.009516
vn 0.002991 0.999994 -0.001810
vn 0.044252 0.998387 -0.035560
vn 0.054098 0.998534 0.001840
vn -0.012630 0.998794 -0.047455
vn -0.014231 0.999894 -0.003178
s 1
g GroundPlane
usemtl initialShadingGroup
f 45/1/1 46/2/2 44/3/3 8/4/4
f 5/5/5 4/6/6 9/7/7 10/8/8
f 6/9/9 5/5/5 10/8/8 11/10/10
f 10/8/8 9/7/7 12/11/11 13/12/12
f 11/10/10 10/8/8 13/12/12 14/13/13
f 16/14/14 15/15/15 19/16/16 20/17/17
f 18/18/18 17/19/19 21/20/20 22/21/21
f 11/10/10 14/13/13 21/20/20 17/19/19
f 16/14/14 20/17/17 12/11/11 9/7/7
f 3/22/22 4/6/6 5/5/5 6/9/9 7/23/23 17/19/19 18/18/18 24/24/24 49/25/25 59/26/26 54/27/27 23/28/28 2/29/29 15/15/15 16/14/14
f 13/12/12 12/11/11 25/30/30 26/31/31
f 14/13/13 13/12/12 26/31/31 27/32/32
f 20/17/17 19/16/16 28/33/33 29/34/34
f 22/21/21 21/20/20 30/35/35 31/36/36
f 21/20/20 14/13/13 27/32/32 30/35/35
f 12/11/11 20/17/17 29/34/34 25/30/30
f 26/31/31 25/30/30 32/37/37 33/38/38
f 27/32/32 26/31/31 33/38/38 34/39/39
f 29/34/34 28/33/33 35/40/40
f 38/41/41 31/36/36 30/35/35 27/32/32 34/39/39
f 25/30/30 29/34/34 35/40/40 32/37/37
f 33/38/38 32/37/37 36/42/42 37/43/43
f 34/39/39 33/38/38 37/43/43 38/41/41
f 32/37/37 35/40/40 36/42/42
f 48/44/44 49/25/25 24/24/24 40/45/45
f 47/46/46 48/44/44 40/45/45 42/47/47
f 46/2/2 47/46/46 42/47/47 44/3/3
f 55/48/48 56/49/49 46/2/2 45/1/1
f 56/49/49 57/50/50 47/46/46 46/2/2
f 57/50/50 58/51/51 48/44/44 47/46/46
f 58/51/51 59/26/26 49/25/25 48/44/44
f 43/52/52 51/53/53 50/54/54 1/55/55
f 41/56/56 52/57/57 51/53/53 43/52/52
f 39/58/58 53/59/59 52/57/57 41/56/56
f 23/28/28 54/27/27 53/59/59 39/58/58
f 50/54/54 51/53/53 56/49/49 55/48/48
f 51/53/53 52/57/57 57/50/50 56/49/49
f 52/57/57 53/59/59 58/51/51 57/50/50
f 53/59/59 54/27/27 59/26/26 58/51/51
