# This file uses centimeters as units for non-parametric coordinates.

mtllib LargeSpike.mtl
g default
v 5.180203 -1.425203 3.504002
v 6.707992 -1.490465 2.094108
v 7.116020 -1.661053 0.061715
v 6.248443 -1.871806 -1.816872
v 4.436622 -2.042225 -2.824093
v 2.372632 -2.107216 -2.575230
v 0.844845 -2.041954 -1.165341
v 0.436814 -1.871367 0.867051
v 1.304400 -1.660613 2.745644
v 3.116213 -1.490194 3.752866
v 7.427145 2.788972 2.547541
v 8.377108 2.748393 1.670880
v 8.630817 2.642324 0.407165
v 8.091367 2.511280 -0.760919
v 6.964800 2.405315 -1.387199
v 5.681434 2.364904 -1.232460
v 4.731471 2.405484 -0.355803
v 4.477761 2.511553 0.907918
v 5.017215 2.642597 2.076001
v 6.143778 2.748562 2.702281
v 8.637336 5.461884 2.017132
v 9.286272 5.434163 1.418275
v 9.459590 5.361706 0.555010
v 9.091076 5.272187 -0.242927
v 8.321501 5.199800 -0.670750
v 7.444816 5.172195 -0.565045
v 6.795876 5.199916 0.033814
v 6.622567 5.272374 0.897082
v 6.991076 5.361892 1.695019
v 7.760649 5.434278 2.122842
v 9.747788 8.675019 1.910155
v 10.366061 8.648608 1.339584
v 10.531195 8.579575 0.517101
v 10.180088 8.494285 -0.243136
v 9.446871 8.425319 -0.650744
v 8.611607 8.399017 -0.550033
v 7.993323 8.425428 0.020532
v 7.828202 8.494463 0.843016
v 8.179308 8.579752 1.603255
v 8.912520 8.648719 2.010862
v 8.418571 11.524268 1.572329
v 8.843656 11.665244 1.146415
v 8.964887 11.660801 0.540408
v 8.735979 11.512633 -0.014222
v 8.244375 11.277340 -0.305623
v 7.677829 11.044792 -0.222492
v 7.252750 10.903816 0.203419
v 7.131509 10.908260 0.809428
v 7.360411 11.056427 1.364058
v 7.852029 11.291720 1.655461
v 6.917625 13.208472 1.452916
v 7.095644 13.413452 0.930459
v 7.039498 13.401329 0.315099
v 6.770628 13.176729 -0.158117
v 6.391737 12.825446 -0.308436
v 6.047541 12.481657 -0.078443
v 5.869519 12.276677 0.444013
v 5.925666 12.288800 1.059372
v 6.194536 12.513400 1.532586
v 6.573429 12.864683 1.682906
v 2.453525 15.812785 0.829456
vt 0.594829 0.179945
vt 0.623162 0.241178
vt 0.513421 0.342295
vt 0.494932 0.304413
vt 0.664627 0.294719
vt 0.673480 0.234506
vt 0.728283 0.062373
vt 0.713055 0.221337
vt 0.788921 0.033281
vt 0.752050 0.204450
vt 0.853588 0.014504
vt 0.793473 0.193101
vt 0.920808 0.019617
vt 0.836070 0.195689
vt 0.979644 0.052755
vt 0.425662 0.200404
vt 0.537633 0.057597
vt 0.458110 0.228060
vt 0.571591 0.116430
vt 0.479546 0.264943
vt 0.445377 0.404814
vt 0.430401 0.379182
vt 0.675110 0.323397
vt 0.703188 0.317750
vt 0.731801 0.309139
vt 0.761652 0.302406
vt 0.791938 0.302507
vt 0.383629 0.304954
vt 0.403240 0.326440
vt 0.417769 0.352264
vt 0.368815 0.480371
vt 0.355212 0.457608
vt 0.665885 0.431875
vt 0.691075 0.424850
vt 0.716305 0.419386
vt 0.742895 0.416429
vt 0.771082 0.416395
vt 0.311574 0.389624
vt 0.326970 0.412387
vt 0.341461 0.435179
vt 0.266989 0.506508
vt 0.260176 0.487117
vt 0.715999 0.531319
vt 0.733295 0.520881
vt 0.751990 0.512869
vt 0.772087 0.507081
vt 0.792872 0.502404
vt 0.238291 0.429174
vt 0.244694 0.448728
vt 0.252368 0.468047
vt 0.188330 0.516772
vt 0.189178 0.497666
vt 0.773049 0.595145
vt 0.787407 0.582762
vt 0.801504 0.572909
vt 0.816283 0.564138
vt 0.832869 0.554942
vt 0.177683 0.445441
vt 0.183305 0.463715
vt 0.187349 0.480471
vt 0.020356 0.488473
vt 0.850637 0.545264
vt 0.909842 0.698000
vt 0.184755 0.536636
vt 0.812785 0.497524
vt 0.271870 0.526585
vt 0.798480 0.418670
vt 0.382731 0.503328
vt 0.819170 0.311541
vt 0.464404 0.427104
vt 0.873176 0.214924
vt 0.539418 0.375432
vt 0.484815 0.014504
vt 0.665226 0.085937
vn 0.326204 0.040424 0.944435
vn 0.813087 -0.268599 0.516473
vn 0.840056 -0.270423 0.470295
vn 0.460802 -0.044412 0.886391
vn 0.916268 -0.339582 0.212456
vn 0.920548 -0.327879 0.212334
vn 0.882982 -0.280604 -0.376303
vn 0.664469 -0.100996 -0.740460
vn 0.763725 -0.171057 -0.622466
vn 0.885453 -0.269361 -0.378706
vn 0.485405 0.006529 -0.874265
vn 0.485621 0.003634 -0.874162
vn -0.122726 0.367592 -0.921854
vn -0.423856 0.533389 -0.732012
vn -0.341251 0.472513 -0.812576
vn -0.123118 0.340170 -0.932269
vn -0.659080 0.646052 -0.385008
vn -0.656250 0.624923 -0.422857
vn -0.719383 0.665121 -0.200253
vn -0.733840 0.648665 -0.201773
vn -0.712001 0.654066 0.255444
vn -0.654704 0.629901 0.417836
vn -0.611302 0.585414 0.532541
vn -0.721145 0.641718 0.261052
vn -0.454866 0.506452 0.732532
vn -0.460104 0.481056 0.746250
vn 0.113087 0.162186 0.980259
vn 0.113232 0.159320 0.980712
vn 0.838225 -0.255575 0.481726
vn 0.432452 -0.074927 0.898538
vn 0.929875 -0.300697 0.211929
vn 0.741219 -0.205122 -0.639155
vn 0.883796 -0.276957 -0.377095
vn 0.489540 -0.065446 -0.869521
vn -0.389310 0.311229 -0.866934
vn -0.123025 0.151412 -0.980785
vn -0.752481 0.472399 -0.458924
vn -0.843742 0.493614 -0.210821
vn -0.681408 0.434158 0.589228
vn -0.805731 0.501002 0.315904
vn -0.484572 0.304036 0.820215
vn 0.116368 0.091441 0.988988
vn 0.885276 0.052412 0.462103
vn 0.473174 0.063724 0.878661
vn 0.979266 0.019994 0.201588
vn 0.760826 0.028007 -0.648351
vn 0.902222 0.052732 -0.428035
vn 0.473546 0.027126 -0.880351
vn -0.361200 0.075308 -0.929443
vn -0.129922 0.055859 -0.989949
vn -0.844102 0.109484 -0.524886
vn -0.973217 0.099342 -0.207315
vn -0.698916 0.101471 0.707969
vn -0.906201 0.126033 0.403628
vn -0.490730 0.086901 0.866967
vn 0.110917 0.067044 0.991566
vn 0.752854 0.533947 0.384851
vn 0.415140 0.353896 0.838103
vn 0.822562 0.558083 0.109250
vn 0.603972 0.423460 -0.675203
vn 0.735541 0.494223 -0.463382
vn 0.363977 0.279978 -0.888332
vn -0.403926 -0.153101 -0.901889
vn -0.161414 -0.009230 -0.986844
vn -0.806171 -0.391976 -0.443219
vn -0.879335 -0.461761 -0.116388
vn -0.620353 -0.278485 0.733217
vn -0.799992 -0.375226 0.468208
vn -0.416819 -0.144643 0.897407
vn 0.139739 0.180098 0.973672
vn 0.560242 0.793307 0.238315
vn 0.367426 0.568823 0.735825
vn 0.572831 0.819455 -0.018897
vn 0.336670 0.551480 -0.763232
vn 0.483366 0.691710 -0.536558
vn 0.139098 0.336735 -0.931268
vn -0.499261 -0.405225 -0.765853
vn -0.301017 -0.195179 -0.933432
vn -0.707755 -0.662391 -0.245602
vn -0.721585 -0.691582 0.032099
vn -0.454096 -0.385271 0.803345
vn -0.604301 -0.566272 0.560497
vn -0.277422 -0.193876 0.940983
vn 0.170547 0.336957 0.925945
vn 0.390177 0.817655 0.423323
vn 0.203781 0.618155 -0.759182
vn -0.688672 -0.587147 -0.425427
vn -0.474634 -0.367745 0.799679
s 1
g LargeSpike
usemtl initialShadingGroup
f 1/1/1 2/2/2 12/3/3 11/4/4
f 2/2/2 3/5/5 13/72/6 12/3/3
s 2
f 3/74/7 4/7/8 14/8/9 13/6/10
f 4/7/8 5/9/11 15/10/12 14/8/9
s 3
f 5/9/13 6/11/14 16/12/15 15/10/16
f 6/11/14 7/13/17 17/14/18 16/12/15
f 7/13/17 8/15/19 18/71/20 17/14/18
s 4
f 8/73/21 9/17/22 19/18/23 18/16/24
f 9/17/22 10/19/25 20/20/26 19/18/23
s 1
f 10/19/27 1/1/1 11/4/4 20/20/28
f 11/4/4 12/3/3 22/21/29 21/22/30
f 12/3/3 13/72/6 23/70/31 22/21/29
s 2
f 13/6/10 14/8/9 24/24/32 23/23/33
f 14/8/9 15/10/12 25/25/34 24/24/32
s 3
f 15/10/16 16/12/15 26/26/35 25/25/36
f 16/12/15 17/14/18 27/27/37 26/26/35
f 17/14/18 18/71/20 28/69/38 27/27/37
s 4
f 18/16/24 19/18/23 29/29/39 28/28/40
f 19/18/23 20/20/26 30/30/41 29/29/39
s 1
f 20/20/28 11/4/4 21/22/30 30/30/42
f 21/22/30 22/21/29 32/31/43 31/32/44
f 22/21/29 23/70/31 33/68/45 32/31/43
s 2
f 23/23/33 24/24/32 34/34/46 33/33/47
f 24/24/32 25/25/34 35/35/48 34/34/46
s 3
f 25/25/36 26/26/35 36/36/49 35/35/50
f 26/26/35 27/27/37 37/37/51 36/36/49
f 27/27/37 28/69/38 38/67/52 37/37/51
s 4
f 28/28/40 29/29/39 39/39/53 38/38/54
f 29/29/39 30/30/41 40/40/55 39/39/53
s 1
f 30/30/42 21/22/30 31/32/44 40/40/56
f 31/32/44 32/31/43 42/41/57 41/42/58
f 32/31/43 33/68/45 43/66/59 42/41/57
s 2
f 33/33/47 34/34/46 44/44/60 43/43/61
f 34/34/46 35/35/48 45/45/62 44/44/60
s 3
f 35/35/50 36/36/49 46/46/63 45/45/64
f 36/36/49 37/37/51 47/47/65 46/46/63
f 37/37/51 38/67/52 48/65/66 47/47/65
s 4
f 38/38/54 39/39/53 49/49/67 48/48/68
f 39/39/53 40/40/55 50/50/69 49/49/67
s 1
f 40/40/56 31/32/44 41/42/58 50/50/70
f 41/42/58 42/41/57 52/51/71 51/52/72
f 42/41/57 43/66/59 53/64/73 52/51/71
s 2
f 43/43/61 44/44/60 54/54/74 53/53/75
f 44/44/60 45/45/62 55/55/76 54/54/74
s 3
f 45/45/64 46/46/63 56/56/77 55/55/78
f 46/46/63 47/47/65 57/57/79 56/56/77
f 47/47/65 48/65/66 58/62/80 57/57/79
s 4
f 48/48/68 49/49/67 59/59/81 58/58/82
f 49/49/67 50/50/69 60/60/83 59/59/81
s 1
f 50/50/70 41/42/58 51/52/72 60/60/84
f 51/52/72 52/51/71 61/61/85
f 52/51/71 53/64/73 61/61/85
s 2
f 53/53/75 54/54/74 61/63/86
f 54/54/74 55/55/76 61/63/86
s 3
f 55/55/78 56/56/77 61/63/87
f 56/56/77 57/57/79 61/63/87
f 57/57/79 58/62/80 61/63/87
s 4
f 58/58/82 59/59/81 61/61/88
f 59/59/81 60/60/83 61/61/88
s 1
f 60/60/84 51/52/72 61/61/85
