# This file uses centimeters as units for non-parametric coordinates.

mtllib Pillar.mtl
g default
v -9.475664 -0.170294 -2.057601
v -8.965285 -0.170294 -1.776009
v -9.079678 1.547764 -2.171994
v -9.194071 -0.170294 -2.567980
v -8.683692 -0.170294 -2.286388
v -9.032411 0.234030 -2.008372
v -8.916056 0.234030 -2.219263
v -9.126945 0.234030 -2.335617
v -9.243300 0.234030 -2.124726
v -8.833474 0.219259 -2.243577
v -9.152119 0.219258 -2.423217
v -9.335810 0.219258 -2.098461
v -9.003777 0.219258 -1.909712
v -9.151309 0.262334 -2.419954
v -9.327637 0.262334 -2.100363
v -9.008047 0.262334 -1.924034
v -8.831718 0.262334 -2.243625
v -8.879293 0.905384 -2.229883
v -9.137566 0.905384 -2.372380
v -9.280064 0.905384 -2.114106
v -9.021791 0.905384 -1.971609
v -9.194071 -0.326102 -2.567980
v -8.683692 -0.326102 -2.286388
v -8.965285 -0.326102 -1.776009
v -9.475664 -0.326102 -2.057601
v -9.208668 0.881102 -2.134731
v -9.042415 0.881102 -2.043004
v -8.950688 0.881102 -2.209257
v -9.116940 0.881102 -2.300984
v -9.282609 0.870967 -2.113371
v -9.021055 0.870967 -1.969063
v -8.876747 0.870967 -2.230618
v -9.138302 0.870967 -2.374926
vt 0.039750 0.250667
vt 0.159231 0.331775
vt 0.130200 0.351841
vt 0.812544 0.322011
vt 0.380018 0.959288
vt 0.656898 0.893533
vt 0.134872 0.566391
vt 0.605272 0.803343
vt 0.227066 0.476526
vt 0.197727 0.479439
vt 0.588755 0.717828
vt 0.629263 0.632146
vt 0.697391 0.315708
vt 0.377238 0.460286
vt 0.598520 0.196824
vt 0.814108 0.100627
vt 0.286268 0.240332
vt 0.490835 0.402166
vt 0.654831 0.643819
vt 0.544545 0.535638
vt 0.604624 0.760649
vt 0.886827 0.803248
vt 0.898731 0.709213
vt 0.936605 0.644879
vt 0.312941 0.654262
vt 0.438733 0.432841
vt 0.559662 0.148490
vt 0.335821 0.203175
vt 0.785419 0.040712
vt 0.927026 0.607989
vt 0.334227 0.646891
vt 0.853908 0.835829
vt 0.876207 0.698715
vt 0.370538 0.757889
vt 0.610739 0.666666
vt 0.270236 0.542799
vt 0.572485 0.712377
vt 0.338059 0.733576
vt 0.532712 0.696728
vt 0.110534 0.088289
vt 0.154084 0.040712
vt 0.459461 0.390434
vt 0.405753 0.350867
vt 0.315415 0.777439
vt 0.059766 0.634155
vt 0.161784 0.456202
vt 0.691752 0.483616
vt 0.833263 0.286076
vt 0.531143 0.427037
vt 0.627624 0.449040
vt 0.122014 0.549652
vt 0.186794 0.483162
vt 0.262783 0.584828
vt 0.665673 0.852434
vt 0.061022 0.596367
vt 0.621241 0.791148
vt 0.568862 0.526535
vt 0.651221 0.517241
vt 0.046228 0.293794
vt 0.716948 0.340707
vt 0.665671 0.434865
vt 0.624346 0.617659
vn -0.101019 0.978510 0.179761
vn -0.101019 0.978510 0.179761
vn -0.101019 0.978510 0.179761
vn -0.101019 0.978510 0.179761
vn 0.470831 0.223775 -0.853372
vn 0.470831 0.223774 -0.853372
vn 0.470831 0.223774 -0.853372
vn 0.853371 0.223774 0.470833
vn 0.853371 0.223774 0.470833
vn 0.853371 0.223774 0.470833
vn -0.853371 0.223774 -0.470833
vn -0.853371 0.223774 -0.470833
vn -0.853371 0.223774 -0.470833
vn 0.191842 0.976220 0.100951
vn 0.191842 0.976220 0.100951
vn 0.191842 0.976220 0.100951
vn 0.191842 0.976220 0.100951
vn 0.111633 0.973475 -0.199712
vn 0.111633 0.973475 -0.199712
vn 0.111633 0.973475 -0.199712
vn 0.111633 0.973475 -0.199712
vn -0.189668 0.976083 -0.106243
vn -0.189668 0.976083 -0.106243
vn -0.189668 0.976083 -0.106243
vn -0.189668 0.976083 -0.106243
vn -0.470831 0.223774 0.853372
vn -0.470831 0.223774 0.853372
vn -0.470831 0.223774 0.853372
vn 0.468453 0.267551 -0.842003
vn 0.468453 0.267551 -0.842003
vn 0.468453 0.267551 -0.842003
vn 0.468453 0.267551 -0.842003
vn -0.843634 0.259548 -0.470018
vn -0.843634 0.259548 -0.470018
vn -0.843634 0.259548 -0.470018
vn -0.843634 0.259548 -0.470018
vn -0.471913 0.250773 0.845228
vn -0.471914 0.250773 0.845228
vn -0.471914 0.250773 0.845228
vn -0.471913 0.250773 0.845228
vn 0.851569 0.258962 0.455816
vn 0.851569 0.258962 0.455816
vn 0.851569 0.258962 0.455816
vn 0.851569 0.258962 0.455816
vn -0.363256 -0.909877 -0.200420
vn -0.363256 -0.909877 -0.200420
vn -0.363257 -0.909877 -0.200420
vn -0.363257 -0.909877 -0.200420
vn -0.200422 -0.909876 0.363259
vn -0.200422 -0.909876 0.363259
vn -0.200422 -0.909876 0.363259
vn -0.200422 -0.909876 0.363259
vn 0.363250 -0.909880 0.200417
vn 0.363250 -0.909880 0.200417
vn 0.363250 -0.909880 0.200417
vn 0.363250 -0.909880 0.200417
vn 0.200422 -0.909875 -0.363260
vn 0.200422 -0.909875 -0.363260
vn 0.200422 -0.909875 -0.363260
vn 0.200422 -0.909875 -0.363260
vn 0.202639 -0.907769 -0.367277
vn 0.202639 -0.907769 -0.367277
vn 0.202639 -0.907769 -0.367277
vn 0.202639 -0.907769 -0.367277
vn -0.367275 -0.907770 -0.202638
vn -0.367275 -0.907770 -0.202638
vn -0.367275 -0.907770 -0.202638
vn -0.367275 -0.907770 -0.202638
vn -0.202637 -0.907771 0.367274
vn -0.202637 -0.907771 0.367274
vn -0.202637 -0.907771 0.367274
vn -0.202637 -0.907771 0.367274
vn 0.367278 -0.907769 0.202639
vn 0.367278 -0.907769 0.202639
vn 0.367278 -0.907769 0.202639
vn 0.367278 -0.907769 0.202639
vn 0.483083 0.000000 -0.875575
vn 0.483083 0.000000 -0.875575
vn 0.483083 0.000000 -0.875575
vn 0.483083 0.000000 -0.875575
vn 0.875575 0.000000 0.483083
vn 0.875575 0.000000 0.483083
vn 0.875575 0.000000 0.483083
vn 0.875575 0.000000 0.483083
vn -0.483082 0.000000 0.875575
vn -0.483082 0.000000 0.875575
vn -0.483082 0.000000 0.875575
vn -0.483082 0.000000 0.875575
vn -0.875575 0.000000 -0.483082
vn -0.875575 0.000000 -0.483082
vn -0.875575 0.000000 -0.483082
vn -0.875575 0.000000 -0.483082
vn -0.088444 0.983098 0.160302
vn -0.088444 0.983098 0.160302
vn -0.088444 0.983098 0.160302
vn -0.088444 0.983098 0.160302
vn 0.160303 0.983098 0.088443
vn 0.160303 0.983098 0.088443
vn 0.160303 0.983098 0.088443
vn 0.160303 0.983098 0.088443
vn 0.088443 0.983098 -0.160301
vn 0.088443 0.983098 -0.160301
vn 0.088443 0.983098 -0.160301
vn 0.088443 0.983098 -0.160301
vn -0.160301 0.983098 -0.088444
vn -0.160301 0.983098 -0.088444
vn -0.160301 0.983098 -0.088444
vn -0.160301 0.983098 -0.088444
vn -0.482370 0.054372 0.874278
vn -0.482370 0.054372 0.874278
vn -0.482370 0.054372 0.874278
vn -0.482370 0.054372 0.874278
vn 0.874280 0.054373 0.482367
vn 0.874280 0.054373 0.482367
vn 0.874280 0.054373 0.482367
vn 0.874280 0.054373 0.482367
vn 0.482368 0.054371 -0.874280
vn 0.482368 0.054371 -0.874280
vn 0.482368 0.054371 -0.874280
vn 0.482368 0.054371 -0.874280
vn -0.874281 0.054371 -0.482366
vn -0.874281 0.054371 -0.482366
vn -0.874281 0.054371 -0.482366
vn -0.874281 0.054371 -0.482366
s off
g Pillar group2
usemtl initialShadingGroup
f 12/1/1 13/2/2 6/3/3 9/59/4
f 3/44/5 18/45/6 19/7/7
f 21/8/8 18/6/9 3/5/10
f 19/7/11 20/9/12 3/44/13
f 13/2/14 10/10/15 7/46/16 6/3/17
f 8/60/18 7/61/19 10/50/20 11/13/21
f 11/13/22 12/48/23 9/4/24 8/60/25
f 20/39/26 21/8/27 3/5/28
f 11/13/29 10/50/30 5/42/31 4/15/32
f 4/15/33 1/16/34 12/48/35 11/13/36
f 1/40/37 2/17/38 13/2/39 12/1/40
f 2/17/41 5/14/42 10/10/43 13/2/44
f 8/12/45 9/58/46 15/47/47 14/19/48
f 9/49/49 6/57/50 16/20/51 15/18/52
f 6/57/53 7/62/54 17/35/55 16/20/56
f 14/19/57 17/21/58 7/11/59 8/12/60
f 19/7/61 18/45/62 28/55/63 29/51/64
f 29/51/65 26/52/66 20/9/67 19/7/68
f 26/37/69 27/56/70 21/8/71 20/39/72
f 27/56/73 28/54/74 18/6/75 21/8/76
f 4/15/77 5/42/78 23/43/79 22/27/80
f 5/14/81 2/17/82 24/28/83 23/26/84
f 2/17/85 1/40/86 25/41/87 24/28/88
f 1/16/89 4/15/90 22/27/91 25/29/92
f 30/36/93 31/31/94 27/25/95 26/53/96
f 31/31/97 32/34/98 28/38/99 27/25/100
f 29/23/101 28/22/102 32/32/103 33/33/104
f 33/33/105 30/30/106 26/24/107 29/23/108
f 15/18/109 16/20/110 31/31/111 30/36/112
f 16/20/113 17/35/114 32/34/115 31/31/116
f 33/33/117 32/32/118 17/21/119 14/19/120
f 14/19/121 15/47/122 30/30/123 33/33/124
