# This file uses centimeters as units for non-parametric coordinates.

mtllib SmallSpike.mtl
g default
v -10.801944 -0.389639 -7.152268
v -10.742945 -0.421154 -7.170252
v -10.655453 -0.390083 -7.170162
v -10.635922 -0.339366 -7.155198
v -10.650973 -0.288543 -7.136009
v -10.735857 -0.257028 -7.114769
v -10.797464 -0.288099 -7.118116
v -10.816995 -0.338816 -7.133080
v -10.778620 -0.530451 -6.988785
v -10.721694 -0.560477 -7.006009
v -10.639050 -0.530875 -7.005833
v -10.620441 -0.482553 -6.991576
v -10.634782 -0.434132 -6.973294
v -10.716930 -0.404106 -6.952897
v -10.774351 -0.433708 -6.956246
v -10.792959 -0.482029 -6.970503
v -10.763810 -0.519451 -6.783951
v -10.716991 -0.542709 -6.788848
v -10.661332 -0.519762 -6.796469
v -10.649295 -0.482321 -6.799357
v -10.661449 -0.444807 -6.799293
v -10.721893 -0.421548 -6.792682
v -10.763927 -0.444496 -6.786776
v -10.775965 -0.481936 -6.783885
v -10.759329 -0.469532 -6.648799
v -10.708374 -0.478763 -6.644249
v -10.659863 -0.441996 -6.651436
v -10.656382 -0.410041 -6.663505
v -10.676380 -0.384587 -6.674950
v -10.730424 -0.375356 -6.679111
v -10.775846 -0.412123 -6.672313
v -10.779327 -0.444078 -6.660244
v -10.731239 -0.262297 -6.391365
vt 0.029698 0.749482
vt 0.015041 0.667957
vt 0.145172 0.459481
vt 0.263835 0.658342
vt 0.109266 0.159836
vt 0.213851 0.385763
vt 0.158965 0.113081
vt 0.257022 0.345735
vt 0.208810 0.067653
vt 0.305925 0.310136
vt 0.306709 0.015267
vt 0.284898 0.861036
vt 0.030255 0.881579
vt 0.275315 0.784057
vt 0.030167 0.815824
vt 0.269645 0.720715
vt 0.370191 0.594340
vt 0.496808 0.703513
vt 0.401426 0.529216
vt 0.430246 0.490904
vt 0.465036 0.456667
vt 0.471106 0.852746
vt 0.484316 0.797174
vt 0.491677 0.750305
vt 0.554065 0.657271
vt 0.650209 0.761386
vt 0.581756 0.590550
vt 0.600030 0.554876
vt 0.620272 0.520368
vt 0.611466 0.902947
vt 0.621906 0.835233
vt 0.633353 0.797496
vt 0.970121 0.984733
vt 0.657021 0.466722
vt 0.949630 0.690743
vt 0.683132 0.709071
vt 0.525162 0.403736
vt 0.505702 0.641646
vt 0.399746 0.260514
vt 0.255758 0.580098
vt 0.046920 0.961648
vt 0.015041 0.223681
vn -0.809668 -0.497042 -0.312068
vn -0.087345 -0.765212 -0.637825
vn -0.022114 -0.941434 -0.336472
vn -0.711370 -0.679962 -0.177777
vn 0.604276 -0.574017 -0.552590
vn 0.571378 -0.757719 -0.315260
vn 0.913535 -0.259327 -0.313374
vn 0.943775 -0.305603 -0.126077
vn 0.963354 0.240315 0.119153
vn 0.612032 0.618172 0.493235
vn 0.731046 0.600415 0.324150
vn 0.959266 0.249248 0.132984
vn 0.091003 0.742336 0.663819
vn 0.069021 0.877439 0.474697
vn -0.597174 0.552772 0.581228
vn -0.745226 0.560343 0.361460
vn -0.904282 0.245086 0.349582
vn -0.929660 0.282710 0.236238
vn -0.963610 -0.254510 -0.081734
vn -0.960021 -0.279784 -0.009000
vn 0.054566 -0.977639 0.203090
vn -0.643137 -0.743814 0.181978
vn 0.631140 -0.754750 0.178924
vn 0.950187 -0.285116 0.125909
vn 0.655903 0.754803 -0.008036
vn 0.947063 0.313885 0.067435
vn -0.057851 0.993715 -0.095830
vn -0.781898 0.621604 -0.047363
vn -0.958945 0.283170 0.015473
vn -0.927448 -0.357176 0.110748
vn 0.198528 -0.828616 0.523434
vn -0.503005 -0.729755 0.463080
vn 0.750073 -0.521921 0.406188
vn 0.975321 -0.092757 0.200364
vn 0.505316 0.812398 -0.290973
vn 0.853843 0.505939 -0.122382
vn -0.217125 0.905218 -0.365291
vn -0.829868 0.526590 -0.184451
vn -0.986099 0.165478 -0.015019
vn -0.848710 -0.433529 0.302894
vn 0.243796 -0.698425 0.672879
vn -0.262622 0.913035 -0.312086
s 1
g SmallSpike
usemtl initialShadingGroup
f 1/1/1 2/2/2 10/40/3 9/4/4
f 10/3/3 2/42/2 3/5/5 11/6/6
f 3/5/5 4/7/7 12/8/8 11/6/6
s 2
f 4/7/9 5/9/10 13/10/11 12/8/12
f 5/9/10 6/11/13 14/39/14 13/10/11
f 14/12/14 6/41/13 7/13/15 15/14/16
f 7/13/15 8/15/17 16/16/18 15/14/16
s 1
f 8/15/19 1/1/1 9/4/4 16/16/20
f 9/4/4 10/40/3 18/38/21 17/18/22
f 18/17/21 10/3/3 11/6/6 19/19/23
f 11/6/6 12/8/8 20/20/24 19/19/23
s 2
f 12/8/12 13/10/11 21/21/25 20/20/26
f 13/10/11 14/39/14 22/37/27 21/21/25
f 22/22/27 14/12/14 15/14/16 23/23/28
f 15/14/16 16/16/18 24/24/29 23/23/28
s 1
f 16/16/20 9/4/4 17/18/22 24/24/30
f 17/18/22 18/38/21 26/36/31 25/26/32
f 26/25/31 18/17/21 19/19/23 27/27/33
f 19/19/23 20/20/24 28/28/34 27/27/33
s 2
f 20/20/26 21/21/25 29/29/35 28/28/36
f 21/21/25 22/37/27 30/34/37 29/29/35
f 30/30/37 22/22/27 23/23/28 31/31/38
f 23/23/28 24/24/29 32/32/39 31/31/38
s 1
f 24/24/30 17/18/22 25/26/32 32/32/40
f 25/26/32 26/36/31 33/33/41
f 33/35/41 26/25/31 27/27/33
f 27/27/33 28/28/34 33/35/41
s 2
f 28/28/36 29/29/35 33/35/42
f 29/29/35 30/34/37 33/35/42
f 33/33/42 30/30/37 31/31/38
f 31/31/38 32/32/39 33/33/42
s 1
f 32/32/40 25/26/32 33/33/41
