# This file uses centimeters as units for non-parametric coordinates.

mtllib CentrePlatformBLK.mtl
g default
v 4.649669 -0.351337 -3.378183
v 1.776015 -0.351337 -5.466014
v -1.776016 -0.351337 -5.466014
v -4.649670 -0.351337 -3.378182
v -5.747307 -0.351337 0.000000
v -4.649669 -0.351337 3.378183
v -1.776015 -0.351337 5.466014
v 1.776016 -0.351337 5.466014
v 4.649669 -0.351337 3.378182
v 5.747306 -0.351337 0.000000
v 3.961648 0.351337 -2.878307
v 1.513214 0.351337 -4.657197
v -1.513216 0.351337 -4.657197
v -3.961649 0.351337 -2.878305
v -4.896866 0.351337 0.000000
v -3.961648 0.351337 2.878306
v -1.513215 0.351337 4.657197
v 1.513215 0.351337 4.657197
v 3.961648 0.351337 2.878305
v 4.896866 0.351337 0.000000
v 2.504891 0.833599 -1.819911
v 0.956782 0.833599 -2.944678
v -0.000001 0.833600 -0.000001
v -0.956783 0.833600 -2.944677
v -2.504891 0.833600 -1.819909
v -3.096216 0.833600 0.000001
v -2.504892 0.833600 1.819910
v -0.956783 0.833600 2.944678
v 0.956782 0.833600 2.944677
v 2.504890 0.833600 1.819910
v 3.096214 0.833600 -0.000000
vt 0.375000 0.312500
vt 0.400000 0.312500
vt 0.425000 0.312500
vt 0.450000 0.312500
vt 0.475000 0.312500
vt 0.500000 0.312500
vt 0.525000 0.312500
vt 0.550000 0.312500
vt 0.575000 0.312500
vt 0.600000 0.312500
vt 0.625000 0.312500
vt 0.375000 0.688440
vt 0.400000 0.688440
vt 0.425000 0.688440
vt 0.450000 0.688440
vt 0.475000 0.688440
vt 0.500000 0.688440
vt 0.525000 0.688440
vt 0.550000 0.688440
vt 0.575000 0.688440
vt 0.600000 0.688440
vt 0.625000 0.688440
vt 0.626409 0.751909
vt 0.548284 0.695147
vt 0.451716 0.695147
vt 0.373591 0.751909
vt 0.343750 0.843750
vt 0.373591 0.935591
vt 0.451716 0.992353
vt 0.548284 0.992353
vt 0.626409 0.935591
vt 0.656250 0.843750
vt 0.500000 0.837500
vt 0.626409 0.935591
vt 0.548284 0.992353
vt 0.451716 0.992353
vt 0.373591 0.935591
vt 0.343750 0.843750
vt 0.373591 0.751909
vt 0.451716 0.695147
vt 0.548284 0.695147
vt 0.626409 0.751909
vt 0.656250 0.843750
vn 0.515307 0.770901 -0.374393
vn 0.196830 0.770901 -0.605780
vn 0.136567 0.897045 -0.420310
vn 0.357537 0.897045 -0.259766
vn -0.196830 0.770901 -0.605780
vn -0.136567 0.897045 -0.420310
vn -0.515307 0.770901 -0.374393
vn -0.357537 0.897045 -0.259766
vn -0.636955 0.770901 0.000000
vn -0.441940 0.897045 0.000000
vn -0.515307 0.770901 0.374393
vn -0.357537 0.897045 0.259766
vn -0.196830 0.770901 0.605780
vn -0.136567 0.897045 0.420310
vn 0.196830 0.770901 0.605780
vn 0.136567 0.897045 0.420310
vn 0.515307 0.770901 0.374393
vn 0.357537 0.897045 0.259766
vn 0.636955 0.770901 0.000000
vn 0.441940 0.897045 0.000000
vn 0.000000 1.000000 -0.000000
vn 0.000000 1.000000 -0.000000
vn 0.000000 1.000000 -0.000000
vn 0.000000 1.000000 -0.000000
vn 0.000000 1.000000 -0.000000
vn 0.000000 1.000000 0.000000
vn 0.000000 1.000000 0.000000
vn 0.000000 1.000000 0.000000
vn 0.000000 1.000000 -0.000000
vn 0.000000 1.000000 -0.000000
vn 0.000000 1.000000 -0.000000
vn 0.079945 0.965955 -0.246046
vn 0.209300 0.965955 -0.152065
vn -0.079946 0.965955 -0.246046
vn -0.209300 0.965955 -0.152065
vn -0.258709 0.965955 -0.000000
vn -0.209300 0.965955 0.152065
vn -0.079945 0.965955 0.246047
vn 0.079946 0.965955 0.246047
vn 0.209300 0.965955 0.152065
vn 0.258708 0.965955 0.000000
s 1
g CentrePlatformBL
usemtl initialShadingGroup
f 1/1/1 2/2/2 12/13/3 11/12/4
f 2/2/2 3/3/5 13/14/6 12/13/3
f 3/3/5 4/4/7 14/15/8 13/14/6
f 4/4/7 5/5/9 15/16/10 14/15/8
f 5/5/9 6/6/11 16/17/12 15/16/10
f 6/6/11 7/7/13 17/18/14 16/17/12
f 7/7/13 8/8/15 18/19/16 17/18/14
f 8/8/15 9/9/17 19/20/18 18/19/16
f 9/9/17 10/10/19 20/21/20 19/20/18
f 10/10/19 1/11/1 11/22/4 20/21/20
s 2
f 21/34/21 22/35/22 23/33/23
f 22/35/22 24/36/24 23/33/23
f 24/36/24 25/37/25 23/33/23
f 25/37/25 26/38/26 23/33/23
f 26/38/26 27/39/27 23/33/23
f 27/39/27 28/40/28 23/33/23
f 28/40/28 29/41/29 23/33/23
f 29/41/29 30/42/30 23/33/23
f 30/42/30 31/43/31 23/33/23
f 31/43/31 21/34/21 23/33/23
s 1
f 11/31/4 12/30/3 22/35/32 21/34/33
f 12/30/3 13/29/6 24/36/34 22/35/32
f 13/29/6 14/28/8 25/37/35 24/36/34
f 14/28/8 15/27/10 26/38/36 25/37/35
f 15/27/10 16/26/12 27/39/37 26/38/36
f 16/26/12 17/25/14 28/40/38 27/39/37
f 17/25/14 18/24/16 29/41/39 28/40/38
f 18/24/16 19/23/18 30/42/40 29/41/39
f 19/23/18 20/32/20 31/43/41 30/42/40
f 20/32/20 11/31/4 21/34/33 31/43/41
