# This file uses centimeters as units for non-parametric coordinates.

mtllib DirtMoundBLK.mtl
g default
v -1.166147 -0.501442 1.166147
v 1.166147 -0.501442 1.166147
v -0.481673 -0.250222 0.481673
v 0.481673 -0.285523 0.481673
v -0.481673 -0.250222 -0.481673
v 0.481673 -0.144310 -0.481673
v -1.166147 -0.501442 -1.166147
v 1.166147 -0.501442 -1.166147
v -0.158954 -0.320891 0.158954
v 0.158954 -0.391889 0.158954
v 0.158954 -0.361299 -0.158954
v -0.158954 -0.376469 -0.158954
v 0.000000 -0.501446 -1.574298
v -0.779498 -0.011059 -0.779498
v 1.574298 -0.501446 0.000000
v -1.574298 -0.501446 0.000000
v 0.642230 -0.152448 0.000000
v -0.642230 -0.250313 0.000000
v 0.225050 -0.317381 0.225050
v -0.225050 -0.215506 0.225050
v 0.225050 -0.290999 -0.225050
v -0.225050 -0.301689 -0.225050
v 0.000000 -0.501446 1.574298
v 0.779498 -0.116236 0.779498
v 0.000000 -0.250063 0.642230
v -0.779498 0.054711 0.779498
v 0.000000 -0.274466 0.207613
v 0.207613 -0.366519 0.000000
v 0.000000 -0.228254 -0.207613
v -0.207613 -0.368413 0.000000
v 0.000000 -0.120348 -0.642230
v 0.779498 0.029788 -0.779498
v 0.000000 -0.116236 1.039331
v 0.000000 -0.410278 0.000000
v 0.000000 -0.167253 -1.043642
v 0.000000 -0.499815 0.000000
v 1.039331 -0.116236 0.000000
v -1.039331 -0.116236 0.000000
v 0.000000 -0.240349 0.300067
v 0.300067 -0.335629 0.000000
v 0.000000 -0.169572 -0.300067
v -0.300067 -0.346444 0.000000
vt 0.375000 0.000000
vt 0.375000 1.000000
vt 0.625000 0.000000
vt 0.625000 1.000000
vt 0.375000 0.250000
vt 0.625000 0.250000
vt 0.375000 0.500000
vt 0.125000 0.250000
vt 0.625000 0.500000
vt 0.875000 0.250000
vt 0.375000 0.750000
vt 0.125000 0.000000
vt 0.625000 0.750000
vt 0.875000 0.000000
vt 0.430556 0.305556
vt 0.569444 0.305556
vt 0.569444 0.444444
vt 0.430556 0.444444
vt 0.500000 0.125000
vt 0.500000 0.375000
vt 0.500000 0.625000
vt 0.500000 0.875000
vt 0.750000 0.125000
vt 0.250000 0.125000
vt 0.500000 0.250000
vt 0.625000 0.375000
vt 0.500000 0.500000
vt 0.375000 0.375000
vt 0.500000 0.000000
vt 0.500000 1.000000
vt 0.625000 0.125000
vt 0.500000 0.218750
vt 0.375000 0.125000
vt 0.500000 0.281250
vt 0.593750 0.375000
vt 0.500000 0.468750
vt 0.406250 0.375000
vt 0.500000 0.531250
vt 0.625000 0.625000
vt 0.875000 0.125000
vt 0.500000 0.750000
vt 0.375000 0.625000
vt 0.125000 0.125000
vt 0.625000 0.875000
vt 0.750000 0.000000
vt 0.375000 0.875000
vt 0.250000 0.000000
vt 0.750000 0.250000
vt 0.625000 0.375000
vt 0.250000 0.250000
vt 0.375000 0.375000
vt 0.593750 0.281250
vt 0.406250 0.281250
vt 0.593750 0.468750
vt 0.406250 0.468750
vn -0.447230 0.774577 0.447230
vn 0.008140 0.770261 0.637676
vn 0.025706 0.891017 0.453241
vn -0.313224 0.896540 0.313220
vn 0.403182 0.821516 0.403182
vn 0.303839 0.902472 0.305329
vn -0.177352 0.971838 -0.155169
vn 0.086326 0.943226 -0.320737
vn 0.289643 0.909561 -0.298004
vn 0.178870 0.842866 -0.507525
vn 0.139926 0.852554 -0.503559
vn 0.041850 0.998596 0.032464
vn 0.167542 0.980761 -0.100192
vn -0.013702 0.940583 -0.339288
vn -0.142547 0.986069 0.085725
vn 0.024868 0.882795 0.469100
vn -0.020370 0.800339 0.599202
vn -0.060761 0.890042 0.451811
vn 0.193888 0.956870 0.216350
vn -0.050654 0.977947 0.202617
vn -0.008323 0.857683 -0.514112
vn -0.310743 0.897552 -0.312792
vn -0.186661 0.966372 0.176868
vn 0.333485 0.880888 -0.335892
vn 0.432767 0.791157 -0.432184
vn -0.001876 0.766660 -0.642050
vn -0.422229 0.802425 -0.421706
vn 0.000698 -1.000000 0.000698
vn 0.000000 -1.000000 0.000698
vn 0.000000 -1.000000 -0.000000
vn 0.000698 -1.000000 0.000000
vn -0.000698 -1.000000 0.000698
vn -0.000698 -1.000000 -0.000000
vn -0.000698 -1.000000 -0.000698
vn 0.000000 -1.000000 -0.000698
vn 0.000698 -1.000000 -0.000698
vn 0.631139 0.775638 0.007002
vn 0.482533 0.875563 0.023482
vn -0.282735 0.953557 0.103875
vn -0.663847 0.747863 -0.003041
vn -0.479551 0.877461 -0.009631
vn 0.355818 0.933965 -0.033225
vn 0.081246 0.993966 -0.073691
vn 0.037516 0.994219 -0.100609
vn -0.125784 0.989810 -0.066741
vn -0.390328 0.913672 0.113346
vn -0.176128 0.936339 0.303725
vn -0.084081 0.933596 0.348323
vn -0.031513 0.970247 0.240056
vn 0.147908 0.988001 -0.044461
s 1
g DirtBLK
usemtl initialShadingGroup
f 1/1/1 23/29/2 33/19/3 26/33/4
f 23/29/2 2/3/5 24/31/6 33/19/3
f 33/19/3 24/31/6 4/6/7 25/32/8
f 26/33/4 33/19/3 25/32/8 3/5/9
f 9/15/10 27/34/11 34/20/12 30/37/13
f 27/34/11 10/16/14 28/35/15 34/20/12
f 34/20/12 28/35/15 11/17/16 29/36/17
f 30/37/13 34/20/12 29/36/17 12/18/18
f 5/7/19 31/38/20 35/21/21 14/42/22
f 31/38/20 6/9/23 32/39/24 35/21/21
f 35/21/21 32/39/24 8/13/25 13/41/26
f 14/42/22 35/21/21 13/41/26 7/11/27
s 4
f 7/11/28 13/41/29 36/22/30 16/46/31
f 13/41/29 8/13/32 15/44/33 36/22/30
f 36/22/30 15/44/33 2/4/34 23/30/35
f 16/46/31 36/22/30 23/30/35 1/2/36
s 1
f 2/3/5 15/45/37 37/23/38 24/31/6
f 15/45/37 8/14/25 32/40/24 37/23/38
f 37/23/38 32/40/24 6/10/23 17/48/39
f 24/31/6 37/23/38 17/48/39 4/6/7
f 7/12/27 16/47/40 38/24/41 14/43/22
f 16/47/40 1/1/1 26/33/4 38/24/41
f 38/24/41 26/33/4 3/5/9 18/50/42
f 14/43/22 38/24/41 18/50/42 5/8/19
f 3/5/9 25/32/8 39/25/43 20/53/44
f 25/32/8 4/6/7 19/52/45 39/25/43
f 39/25/43 19/52/45 10/16/14 27/34/11
f 20/53/44 39/25/43 27/34/11 9/15/10
f 4/6/7 17/49/39 40/26/46 19/52/45
f 17/49/39 6/9/23 21/54/47 40/26/46
f 40/26/46 21/54/47 11/17/16 28/35/15
f 19/52/45 40/26/46 28/35/15 10/16/14
f 6/9/23 31/38/20 41/27/48 21/54/47
f 31/38/20 5/7/19 22/55/49 41/27/48
f 41/27/48 22/55/49 12/18/18 29/36/17
f 21/54/47 41/27/48 29/36/17 11/17/16
f 5/7/19 18/51/42 42/28/50 22/55/49
f 18/51/42 3/5/9 20/53/44 42/28/50
f 42/28/50 20/53/44 9/15/10 30/37/13
f 22/55/49 42/28/50 30/37/13 12/18/18
