# This file uses centimeters as units for non-parametric coordinates.

mtllib PillarBLK.mtl
g default
v -0.500000 -1.379897 0.500000
v 0.500000 -1.379897 0.500000
v 0.000000 2.538488 0.000000
v -0.500000 -1.379897 -0.500000
v 0.500000 -1.379897 -0.500000
v 0.250000 -0.214559 0.250000
v 0.250000 -0.214559 -0.250000
v -0.250000 -0.214559 -0.250000
v -0.250000 -0.214559 0.250000
v 0.375719 -0.220754 -0.377011
v -0.383605 -0.220754 -0.383978
v -0.391806 -0.220755 0.390513
v 0.400984 -0.220756 0.400611
v -0.378860 -0.128547 -0.378860
v -0.378860 -0.128547 0.378860
v 0.378860 -0.128547 0.378860
v 0.378860 -0.128547 -0.378860
vt 0.375000 0.000000
vt 0.625000 0.000000
vt 0.500000 0.333333
vt 0.375000 0.750000
vt 0.625000 0.750000
vt 0.375000 1.000000
vt 0.625000 1.000000
vt 0.875000 0.000000
vt 0.125000 0.000000
vt 0.562500 0.166667
vt 0.562500 0.541667
vt 0.687500 0.166667
vt 0.312500 0.166667
vt 0.437500 0.541667
vt 0.437500 0.166667
vt 0.585481 0.618270
vt 0.756443 0.105384
vt 0.238808 0.101163
vt 0.412936 0.623547
vt 0.411072 0.096193
vt 0.591222 0.090074
vt 0.406250 0.250000
vt 0.468750 0.437500
vt 0.468750 0.250000
vt 0.531250 0.250000
vt 0.531250 0.437500
vt 0.593750 0.250000
vn -0.005589 0.128482 0.991696
vn -0.005590 0.127672 0.991801
vn -0.000527 0.228647 0.973509
vn -0.000527 0.230749 0.973013
vn 0.000000 0.140641 -0.990061
vn 0.000000 0.086171 -0.996280
vn 0.000000 0.086171 -0.996280
vn 0.000000 -1.000000 0.000000
vn 0.000000 -1.000000 0.000000
vn 0.000000 -1.000000 0.000000
vn 0.000000 -1.000000 0.000000
vn 0.996280 0.086171 0.000000
vn 0.996280 0.086171 0.000000
vn 0.990061 0.140641 0.000000
vn -0.996280 0.086171 0.000000
vn -0.996280 0.086171 0.000000
vn -0.990061 0.140641 0.000000
vn 0.991296 0.130898 -0.014098
vn 0.991021 0.132963 -0.014095
vn 0.990825 0.135142 -0.001344
vn 0.991359 0.131169 -0.001341
vn 0.000373 0.026989 -0.999636
vn 0.000373 0.024740 -0.999694
vn 0.003925 0.136519 -0.990630
vn 0.003926 0.135779 -0.990731
vn -0.991163 0.132569 -0.004584
vn -0.991236 0.132027 -0.004584
vn -0.992681 0.120763 -0.000435
vn -0.992219 0.124506 -0.000436
vn 0.000000 0.086171 0.996280
vn 0.000000 0.086171 0.996280
vn 0.000000 0.140641 0.990061
vn 0.003939 0.102567 -0.994718
vn 0.003939 0.102567 -0.994718
vn -0.995328 0.096438 -0.004600
vn -0.995328 0.096438 -0.004600
vn -0.005610 0.089757 0.995948
vn -0.005610 0.089757 0.995948
vn 0.995280 0.096009 -0.014146
vn 0.995280 0.096009 -0.014146
s 1
g PillarBL
usemtl initialShadingGroup
f 12/20/1 13/21/2 6/10/3 9/15/4
s 2
f 3/3/5 17/26/6 14/23/7
s off
f 4/4/8 5/5/9 2/7/10 1/6/11
s 3
f 16/25/12 17/27/13 3/3/14
s 4
f 14/22/15 15/24/16 3/3/17
s 3
f 13/21/18 10/17/19 7/12/20 6/10/21
s 2
f 8/14/22 7/11/23 10/16/24 11/19/25
s 4
f 11/18/26 12/20/27 9/15/28 8/13/29
s 1
f 15/24/30 16/25/31 3/3/32
s 2
f 11/19/25 10/16/24 5/5/33 4/4/34
s 4
f 4/9/35 1/1/36 12/20/27 11/18/26
s 1
f 1/1/37 2/2/38 13/21/2 12/20/1
s 3
f 2/2/39 5/8/40 10/17/19 13/21/18
s 4
f 8/13/29 9/15/28 15/24/16 14/22/15
s 1
f 9/15/4 6/10/3 16/25/31 15/24/30
s 3
f 6/10/21 7/12/20 17/27/13 16/25/12
s 2
f 14/23/7 17/26/6 7/11/23 8/14/22
