# This file uses centimeters as units for non-parametric coordinates.

mtllib RampBLK.mtl
g default
v -1.652969 -1.987509 0.500000
v 1.652969 -1.987509 0.500000
v -1.652969 1.987509 0.500000
v 1.652969 1.987509 0.500000
v -1.652969 -1.985206 -5.095805
v 1.652969 -1.985206 -5.095805
vt 0.375000 0.000000
vt 0.625000 0.000000
vt 0.375000 0.250000
vt 0.625000 0.250000
vt 0.375000 0.625000
vt 0.625000 0.625000
vt 0.375000 1.000000
vt 0.625000 1.000000
vt 0.875000 0.125000
vt 0.125000 0.125000
vn 0.000000 0.000000 1.000000
vn 0.000000 0.000000 1.000000
vn 0.000000 0.000000 1.000000
vn 0.000000 0.000000 1.000000
vn 0.000000 0.815404 -0.578892
vn 0.000000 0.815404 -0.578892
vn 0.000000 0.815404 -0.578892
vn 0.000000 0.815404 -0.578892
vn 0.000000 -1.000000 -0.000412
vn 0.000000 -1.000000 -0.000412
vn 0.000000 -1.000000 -0.000412
vn 0.000000 -1.000000 -0.000412
vn 1.000000 0.000000 0.000000
vn 1.000000 0.000000 0.000000
vn 1.000000 0.000000 0.000000
vn -1.000000 0.000000 0.000000
vn -1.000000 0.000000 0.000000
vn -1.000000 0.000000 0.000000
s off
g RampBLK
usemtl initialShadingGroup
f 1/1/1 2/2/2 4/4/3 3/3/4
f 3/3/5 4/4/6 6/6/7 5/5/8
f 5/5/9 6/6/10 2/8/11 1/7/12
f 2/2/13 6/9/14 4/4/15
f 5/10/16 1/1/17 3/3/18
