# This file uses centimeters as units for non-parametric coordinates.

mtllib TenticleBLK.mtl
g default
v 0.586845 -0.349699 -0.261280
v 0.429837 -0.349699 -0.477382
v 0.198507 -0.349699 -0.610941
v -0.067147 -0.349699 -0.638862
v -0.321191 -0.349699 -0.556319
v -0.519697 -0.349699 -0.377582
v -0.628344 -0.349699 -0.133559
v -0.628344 -0.349699 0.133559
v -0.519698 -0.349699 0.377582
v -0.321191 -0.349699 0.556319
v -0.067147 -0.349699 0.638862
v 0.198507 -0.349699 0.610941
v 0.429837 -0.349699 0.477383
v 0.586845 -0.349699 0.261280
v 0.642382 -0.349699 0.000000
v 0.442005 0.203866 -0.196013
v 0.324218 0.203866 -0.358133
v 0.150673 0.203866 -0.458329
v -0.048621 0.203866 -0.479275
v -0.239204 0.203866 -0.417351
v -0.388124 0.203866 -0.283263
v -0.469631 0.203866 -0.100196
v -0.469631 0.203866 0.100196
v -0.388124 0.203866 0.283263
v -0.239204 0.203866 0.417351
v -0.048621 0.203866 0.479275
v 0.150673 0.203866 0.458329
v 0.324218 0.203866 0.358133
v 0.442005 0.203866 0.196013
v 0.483669 0.203866 0.000000
v 0.309195 0.781752 -0.173315
v 0.227341 0.781752 -0.316662
v 0.106739 0.781752 -0.405256
v -0.122224 0.781752 -0.423777
v -0.301567 0.781752 -0.369023
v -0.480684 0.781752 -0.250462
v -0.578718 0.781752 -0.088594
v -0.578718 0.781752 0.088593
v -0.480684 0.781752 0.250462
v -0.301567 0.781752 0.369023
v -0.122224 0.781752 0.423777
v 0.106739 0.781752 0.405256
v 0.227341 0.781752 0.316662
v 0.309195 0.781752 0.173315
v 0.338149 0.781752 0.000000
v -0.663655 1.618771 -0.160708
v -0.663655 1.526182 -0.293629
v -0.663655 1.389768 -0.375779
v -0.663655 1.233111 -0.392952
v -0.663656 1.083301 -0.342181
v -0.663656 0.966241 -0.232244
v -0.663656 0.902172 -0.082149
v -0.663656 0.902172 0.082149
v -0.663656 0.966241 0.232244
v -0.663656 1.083301 0.342181
v -0.663655 1.233111 0.392953
v -0.663655 1.389767 0.375779
v -0.663655 1.526182 0.293629
v -0.663655 1.618771 0.160709
v -0.663654 1.651521 0.000000
v -4.594738 1.578972 -0.087028
v -4.594738 1.528833 -0.159008
v -4.594738 1.454961 -0.203494
v -4.594738 1.370127 -0.212794
v -4.594738 1.289000 -0.185300
v -4.594739 1.225609 -0.125766
v -4.594739 1.190915 -0.044486
v -4.594739 1.190915 0.044486
v -4.594739 1.225609 0.125766
v -4.594738 1.289000 0.185300
v -4.594738 1.370127 0.212794
v -4.594738 1.454960 0.203494
v -4.594738 1.528833 0.159008
v -4.594738 1.578972 0.087028
v -4.594738 1.596707 0.000000
v -5.425904 1.428357 -0.016237
v -5.425904 1.419003 -0.029667
v -5.425904 1.393393 0.000000
v -5.425904 1.405220 -0.037967
v -5.425904 1.389392 -0.039702
v -5.425904 1.374256 -0.034573
v -5.425905 1.362428 -0.023465
v -5.425905 1.355955 -0.008300
v -5.425905 1.355955 0.008300
v -5.425905 1.362428 0.023465
v -5.425904 1.374256 0.034573
v -5.425904 1.389392 0.039703
v -5.425904 1.405220 0.037967
v -5.425904 1.419003 0.029667
v -5.425904 1.428357 0.016237
v -5.425904 1.431666 0.000000
v -0.200924 1.349764 -0.173532
v -0.231375 1.300316 -0.317058
v -0.276240 1.227463 -0.405763
v -0.468854 1.026795 -0.424307
v -0.535571 0.946788 -0.369485
v -0.602204 0.884271 -0.250775
v -0.638674 0.850055 -0.088704
v -0.638674 0.850055 0.088704
v -0.602204 0.884271 0.250775
v -0.535571 0.946788 0.369485
v -0.468854 1.026795 0.424307
v -0.276240 1.227462 0.405763
v -0.231375 1.300316 0.317058
v -0.200924 1.349764 0.173532
v -0.190153 1.367254 0.000000
v -1.600491 1.716316 -0.151581
v -1.600491 1.628986 -0.276953
v -1.600491 1.500319 -0.354437
v -1.600492 1.352559 -0.370636
v -1.600492 1.211257 -0.322748
v -1.600493 1.100845 -0.219054
v -1.600493 1.040415 -0.077484
v -1.600493 1.040415 0.077484
v -1.600493 1.100845 0.219054
v -1.600492 1.211257 0.322748
v -1.600492 1.352559 0.370636
v -1.600491 1.500318 0.354437
v -1.600491 1.628986 0.276953
v -1.600491 1.716316 0.151582
v -1.600491 1.747206 0.000000
vt 0.375000 0.312500
vt 0.391667 0.312500
vt 0.408333 0.312500
vt 0.425000 0.312500
vt 0.441667 0.312500
vt 0.458333 0.312500
vt 0.475000 0.312500
vt 0.491667 0.312500
vt 0.508333 0.312500
vt 0.525000 0.312500
vt 0.541667 0.312500
vt 0.558333 0.312500
vt 0.575000 0.312500
vt 0.591667 0.312500
vt 0.608333 0.312500
vt 0.625000 0.312500
vt 0.375000 0.688440
vt 0.391667 0.688440
vt 0.408333 0.688440
vt 0.425000 0.688440
vt 0.441667 0.688440
vt 0.458333 0.688440
vt 0.475000 0.688440
vt 0.491667 0.688440
vt 0.508333 0.688440
vt 0.525000 0.688440
vt 0.541667 0.688440
vt 0.558333 0.688440
vt 0.575000 0.688440
vt 0.591667 0.688440
vt 0.608333 0.688440
vt 0.625000 0.688440
vt 0.642741 0.780197
vt 0.604552 0.727634
vt 0.548284 0.695147
vt 0.483667 0.688356
vt 0.421875 0.708434
vt 0.373591 0.751909
vt 0.347164 0.811264
vt 0.347164 0.876236
vt 0.373591 0.935591
vt 0.421875 0.979066
vt 0.483667 0.999144
vt 0.548284 0.992353
vt 0.604552 0.959866
vt 0.642741 0.907303
vt 0.656250 0.843750
vt 0.500000 0.837500
vt 0.642741 0.907303
vt 0.604552 0.959866
vt 0.548284 0.992353
vt 0.483667 0.999144
vt 0.421875 0.979066
vt 0.373591 0.935591
vt 0.347164 0.876236
vt 0.347164 0.811264
vt 0.373591 0.751909
vt 0.421875 0.708434
vt 0.483667 0.688356
vt 0.548284 0.695147
vt 0.604552 0.727634
vt 0.642741 0.780197
vt 0.656250 0.843750
vt 0.642741 0.907303
vt 0.604552 0.959866
vt 0.548284 0.992353
vt 0.483667 0.999144
vt 0.421875 0.979066
vt 0.373591 0.935591
vt 0.347164 0.876236
vt 0.347164 0.811264
vt 0.373591 0.751909
vt 0.421875 0.708434
vt 0.483667 0.688356
vt 0.548284 0.695147
vt 0.604552 0.727634
vt 0.642741 0.780197
vt 0.656250 0.843750
vt 0.642741 0.907303
vt 0.604552 0.959866
vt 0.548284 0.992353
vt 0.483667 0.999144
vt 0.421875 0.979066
vt 0.373591 0.935591
vt 0.347164 0.876236
vt 0.347164 0.811264
vt 0.373591 0.751909
vt 0.421875 0.708434
vt 0.483667 0.688356
vt 0.548284 0.695147
vt 0.604552 0.727634
vt 0.642741 0.780197
vt 0.656250 0.843750
vt 0.642741 0.907303
vt 0.604552 0.959866
vt 0.548284 0.992353
vt 0.483667 0.999144
vt 0.421875 0.979066
vt 0.373591 0.935591
vt 0.347164 0.876236
vt 0.347164 0.811264
vt 0.373591 0.751909
vt 0.421875 0.708434
vt 0.483667 0.688356
vt 0.548284 0.695147
vt 0.604552 0.727634
vt 0.642741 0.780197
vt 0.656250 0.843750
vt 0.642741 0.907303
vt 0.604552 0.959866
vt 0.548284 0.992353
vt 0.483667 0.999144
vt 0.421875 0.979066
vt 0.373591 0.935591
vt 0.347164 0.876236
vt 0.347164 0.811264
vt 0.373591 0.751909
vt 0.421875 0.708434
vt 0.483667 0.688356
vt 0.548284 0.695147
vt 0.604552 0.727634
vt 0.642741 0.780197
vt 0.656250 0.843750
vt 0.642741 0.907303
vt 0.604552 0.959866
vt 0.548284 0.992353
vt 0.483667 0.999144
vt 0.421875 0.979066
vt 0.373591 0.935591
vt 0.347164 0.876236
vt 0.347164 0.811264
vt 0.373591 0.751909
vt 0.421875 0.708434
vt 0.483667 0.688356
vt 0.548284 0.695147
vt 0.604552 0.727634
vt 0.642741 0.780197
vt 0.656250 0.843750
vn 0.878064 0.275850 -0.391038
vn 0.642915 0.276537 -0.714275
vn 0.669369 0.230555 -0.706251
vn 0.891594 0.250546 -0.377210
vn 0.296676 0.277549 -0.913756
vn 0.300484 0.207564 -0.930928
vn -0.100605 0.278710 -0.955091
vn -0.094436 0.187941 -0.977630
vn -0.480192 0.279819 -0.831335
vn -0.475420 0.158956 -0.865280
vn -0.776571 0.280684 -0.564052
vn -0.779130 0.117376 -0.615775
vn -0.938700 0.281157 -0.199480
vn -0.970976 0.082353 -0.224554
vn -0.938700 0.281158 0.199480
vn -0.970976 0.082353 0.224554
vn -0.776571 0.280684 0.564051
vn -0.779130 0.117376 0.615775
vn -0.480192 0.279819 0.831334
vn -0.475420 0.158956 0.865280
vn -0.100605 0.278710 0.955091
vn -0.094436 0.187941 0.977630
vn 0.296676 0.277549 0.913756
vn 0.300484 0.207564 0.930928
vn 0.642914 0.276537 0.714275
vn 0.669368 0.230555 0.706251
vn 0.878064 0.275850 0.391038
vn 0.891594 0.250546 0.377210
vn 0.961271 0.275606 -0.000000
vn 0.965953 0.258716 -0.000000
vn -0.201668 0.895081 -0.397694
vn -0.205952 0.657164 -0.725065
vn -1.000000 0.000015 0.000000
vn -0.209888 0.305083 -0.928909
vn -0.211498 -0.102614 -0.971977
vn -0.210173 -0.491230 -0.845293
vn -0.207034 -0.792222 -0.574039
vn -0.204224 -0.957521 -0.203586
vn -0.204224 -0.957521 0.203586
vn -0.207034 -0.792222 0.574039
vn -0.210173 -0.491230 0.845293
vn -0.211498 -0.102616 0.971977
vn -0.209888 0.305082 0.928909
vn -0.205952 0.657162 0.725067
vn -0.201668 0.895081 0.397694
vn -0.199654 0.979866 -0.000000
vn 0.693913 0.372181 -0.616414
vn 0.837009 0.456636 -0.301494
vn 0.318448 0.199353 -0.926741
vn -0.054137 0.043907 -0.997568
vn -0.447245 -0.113311 -0.887205
vn -0.737793 -0.210738 -0.641289
vn -0.938738 -0.253173 -0.233826
vn -0.938738 -0.253173 0.233825
vn -0.737793 -0.210738 0.641288
vn -0.447245 -0.113311 0.887205
vn -0.054137 0.043907 0.997568
vn 0.318448 0.199353 0.926741
vn 0.693913 0.372181 0.616414
vn 0.837009 0.456636 0.301494
vn 0.875583 0.483069 -0.000000
vn 0.621348 0.739752 -0.258252
vn 0.528655 0.647001 -0.549466
vn 0.166914 0.706555 -0.687692
vn 0.228188 0.906096 -0.356259
vn 0.257203 0.332148 -0.907482
vn 0.054123 0.342224 -0.938058
vn -0.074993 -0.034091 -0.996601
vn -0.048325 -0.069406 -0.996417
vn -0.433044 -0.449042 -0.781559
vn -0.158969 -0.508913 -0.846012
vn -0.611887 -0.599082 -0.516426
vn -0.208573 -0.804722 -0.555806
vn -0.763932 -0.617697 -0.186705
vn -0.217421 -0.957154 -0.191270
vn -0.763932 -0.617697 0.186705
vn -0.217421 -0.957154 0.191270
vn -0.611887 -0.599082 0.516425
vn -0.208573 -0.804722 0.555806
vn -0.433044 -0.449042 0.781559
vn -0.158969 -0.508913 0.846012
vn -0.074993 -0.034092 0.996601
vn -0.048325 -0.069407 0.996417
vn 0.257203 0.332148 0.907482
vn 0.054122 0.342224 0.938059
vn 0.528654 0.647001 0.549468
vn 0.166914 0.706553 0.687694
vn 0.621348 0.739752 0.258252
vn 0.228188 0.906096 0.356259
vn 0.647026 0.762468 0.000000
vn 0.240647 0.970613 0.000000
vn -0.009329 0.922558 -0.385745
vn -0.017907 0.692150 -0.721532
vn -0.067305 0.681363 -0.728844
vn -0.065597 0.916953 -0.393565
vn -0.031484 0.330658 -0.943225
vn -0.068769 0.319093 -0.945225
vn -0.047317 -0.100362 -0.993825
vn -0.069360 -0.108215 -0.991705
vn -0.062054 -0.509719 -0.858100
vn -0.068854 -0.512955 -0.855650
vn -0.073271 -0.816317 -0.572939
vn -0.067608 -0.817266 -0.572281
vn -0.079837 -0.976496 -0.200202
vn -0.066304 -0.977470 -0.200391
vn -0.079837 -0.976496 0.200202
vn -0.066304 -0.977470 0.200391
vn -0.073271 -0.816317 0.572939
vn -0.067608 -0.817266 0.572281
vn -0.062054 -0.509719 0.858100
vn -0.068854 -0.512956 0.855649
vn -0.047317 -0.100362 0.993825
vn -0.069360 -0.108216 0.991705
vn -0.031484 0.330658 0.943225
vn -0.068769 0.319093 0.945225
vn -0.017907 0.692147 0.721534
vn -0.067305 0.681361 0.728846
vn -0.009329 0.922558 0.385745
vn -0.065597 0.916953 0.393565
vn -0.006654 0.999978 0.000000
vn -0.064666 0.997907 -0.000000
s 1
g TenticleBLK
usemtl initialShadingGroup
f 1/1/1 2/2/2 17/18/3 16/17/4
f 2/2/2 3/3/5 18/19/6 17/18/3
f 3/3/5 4/4/7 19/20/8 18/19/6
f 4/4/7 5/5/9 20/21/10 19/20/8
f 5/5/9 6/6/11 21/22/12 20/21/10
f 6/6/11 7/7/13 22/23/14 21/22/12
f 7/7/13 8/8/15 23/24/16 22/23/14
f 8/8/15 9/9/17 24/25/18 23/24/16
f 9/9/17 10/10/19 25/26/20 24/25/18
f 10/10/19 11/11/21 26/27/22 25/26/20
f 11/11/21 12/12/23 27/28/24 26/27/22
f 12/12/23 13/13/25 28/29/26 27/28/24
f 13/13/25 14/14/27 29/30/28 28/29/26
f 14/14/27 15/15/29 30/31/30 29/30/28
f 15/15/29 1/16/1 16/32/4 30/31/30
f 76/94/31 77/95/32 78/48/33
f 77/95/32 79/96/34 78/48/33
f 79/96/34 80/97/35 78/48/33
f 80/97/35 81/98/36 78/48/33
f 81/98/36 82/99/37 78/48/33
f 82/99/37 83/100/38 78/48/33
f 83/100/38 84/101/39 78/48/33
f 84/101/39 85/102/40 78/48/33
f 85/102/40 86/103/41 78/48/33
f 86/103/41 87/104/42 78/48/33
f 87/104/42 88/105/43 78/48/33
f 88/105/43 89/106/44 78/48/33
f 89/106/44 90/107/45 78/48/33
f 90/107/45 91/108/46 78/48/33
f 91/108/46 76/94/31 78/48/33
f 16/46/4 17/45/3 32/50/47 31/49/48
f 17/45/3 18/44/6 33/51/49 32/50/47
f 18/44/6 19/43/8 34/52/50 33/51/49
f 19/43/8 20/42/10 35/53/51 34/52/50
f 20/42/10 21/41/12 36/54/52 35/53/51
f 21/41/12 22/40/14 37/55/53 36/54/52
f 22/40/14 23/39/16 38/56/54 37/55/53
f 23/39/16 24/38/18 39/57/55 38/56/54
f 24/38/18 25/37/20 40/58/56 39/57/55
f 25/37/20 26/36/22 41/59/57 40/58/56
f 26/36/22 27/35/24 42/60/58 41/59/57
f 27/35/24 28/34/26 43/61/59 42/60/58
f 28/34/26 29/33/28 44/62/60 43/61/59
f 29/33/28 30/47/30 45/63/61 44/62/60
f 30/47/30 16/46/4 31/49/48 45/63/61
f 92/109/62 93/110/63 47/65/64 46/64/65
f 93/110/63 94/111/66 48/66/67 47/65/64
f 94/111/66 95/112/68 49/67/69 48/66/67
f 95/112/68 96/113/70 50/68/71 49/67/69
f 96/113/70 97/114/72 51/69/73 50/68/71
f 97/114/72 98/115/74 52/70/75 51/69/73
f 98/115/74 99/116/76 53/71/77 52/70/75
f 99/116/76 100/117/78 54/72/79 53/71/77
f 100/117/78 101/118/80 55/73/81 54/72/79
f 101/118/80 102/119/82 56/74/83 55/73/81
f 102/119/82 103/120/84 57/75/85 56/74/83
f 103/120/84 104/121/86 58/76/87 57/75/85
f 104/121/86 105/122/88 59/77/89 58/76/87
f 105/122/88 106/123/90 60/78/91 59/77/89
f 106/123/90 92/109/62 46/64/65 60/78/91
f 107/124/92 108/125/93 62/80/94 61/79/95
f 108/125/93 109/126/96 63/81/97 62/80/94
f 109/126/96 110/127/98 64/82/99 63/81/97
f 110/127/98 111/128/100 65/83/101 64/82/99
f 111/128/100 112/129/102 66/84/103 65/83/101
f 112/129/102 113/130/104 67/85/105 66/84/103
f 113/130/104 114/131/106 68/86/107 67/85/105
f 114/131/106 115/132/108 69/87/109 68/86/107
f 115/132/108 116/133/110 70/88/111 69/87/109
f 116/133/110 117/134/112 71/89/113 70/88/111
f 117/134/112 118/135/114 72/90/115 71/89/113
f 118/135/114 119/136/116 73/91/117 72/90/115
f 119/136/116 120/137/118 74/92/119 73/91/117
f 120/137/118 121/138/120 75/93/121 74/92/119
f 121/138/120 107/124/92 61/79/95 75/93/121
f 61/79/95 62/80/94 77/95/32 76/94/31
f 62/80/94 63/81/97 79/96/34 77/95/32
f 63/81/97 64/82/99 80/97/35 79/96/34
f 64/82/99 65/83/101 81/98/36 80/97/35
f 65/83/101 66/84/103 82/99/37 81/98/36
f 66/84/103 67/85/105 83/100/38 82/99/37
f 67/85/105 68/86/107 84/101/39 83/100/38
f 68/86/107 69/87/109 85/102/40 84/101/39
f 69/87/109 70/88/111 86/103/41 85/102/40
f 70/88/111 71/89/113 87/104/42 86/103/41
f 71/89/113 72/90/115 88/105/43 87/104/42
f 72/90/115 73/91/117 89/106/44 88/105/43
f 73/91/117 74/92/119 90/107/45 89/106/44
f 74/92/119 75/93/121 91/108/46 90/107/45
f 75/93/121 61/79/95 76/94/31 91/108/46
f 31/49/48 32/50/47 93/110/63 92/109/62
f 32/50/47 33/51/49 94/111/66 93/110/63
f 33/51/49 34/52/50 95/112/68 94/111/66
f 34/52/50 35/53/51 96/113/70 95/112/68
f 35/53/51 36/54/52 97/114/72 96/113/70
f 36/54/52 37/55/53 98/115/74 97/114/72
f 37/55/53 38/56/54 99/116/76 98/115/74
f 38/56/54 39/57/55 100/117/78 99/116/76
f 39/57/55 40/58/56 101/118/80 100/117/78
f 40/58/56 41/59/57 102/119/82 101/118/80
f 41/59/57 42/60/58 103/120/84 102/119/82
f 42/60/58 43/61/59 104/121/86 103/120/84
f 43/61/59 44/62/60 105/122/88 104/121/86
f 44/62/60 45/63/61 106/123/90 105/122/88
f 45/63/61 31/49/48 92/109/62 106/123/90
f 46/64/65 47/65/64 108/125/93 107/124/92
f 47/65/64 48/66/67 109/126/96 108/125/93
f 48/66/67 49/67/69 110/127/98 109/126/96
f 49/67/69 50/68/71 111/128/100 110/127/98
f 50/68/71 51/69/73 112/129/102 111/128/100
f 51/69/73 52/70/75 113/130/104 112/129/102
f 52/70/75 53/71/77 114/131/106 113/130/104
f 53/71/77 54/72/79 115/132/108 114/131/106
f 54/72/79 55/73/81 116/133/110 115/132/108
f 55/73/81 56/74/83 117/134/112 116/133/110
f 56/74/83 57/75/85 118/135/114 117/134/112
f 57/75/85 58/76/87 119/136/116 118/135/114
f 58/76/87 59/77/89 120/137/118 119/136/116
f 59/77/89 60/78/91 121/138/120 120/137/118
f 60/78/91 46/64/65 107/124/92 121/138/120
