# This file uses centimeters as units for non-parametric coordinates.

mtllib Cliff2.mtl
g default
v 0.148824 -0.436818 -5.610893
v -0.586297 0.303191 -5.118228
v 0.148824 0.303191 -5.610893
v -0.586297 0.632010 -5.118228
v 0.148824 0.632010 -5.610893
v -0.586297 1.703750 -5.118228
v 0.148824 1.703750 -5.610893
v -0.274847 1.369990 -4.332377
v 0.006414 1.586405 -2.941034
v 0.407147 1.553730 -1.917864
v 1.183605 1.553730 -2.314560
v 0.407151 0.748581 -1.917856
v 1.183602 0.745775 -2.314569
v 0.407147 0.303191 -1.917864
v 1.183605 0.303191 -2.314560
v 0.407149 -0.436818 -1.917863
v 1.183602 -0.436818 -2.314569
v 0.020951 1.043202 -2.894734
v -0.289377 0.751382 -4.378668
v -0.224506 -0.436818 -2.730244
v -0.534839 -0.436818 -4.214190
v -0.497690 0.303191 -4.184254
v -0.251464 0.303191 -2.648384
v -0.534839 1.043202 -4.214190
v -0.224506 1.043202 -2.730244
v -0.537705 1.369990 -4.156230
v -0.178154 1.586405 -2.817350
v 0.027554 1.566918 -3.718654
v -0.347245 -0.436818 -3.467384
v -0.377286 0.303191 -3.563076
v -0.347245 0.994019 -3.467384
v -0.347702 1.566918 -3.468838
v -0.638665 1.816152 -5.140326
v 0.180068 1.816152 -5.688991
v 0.408068 1.829129 -4.962659
v -0.351064 1.829129 -4.453920
v 0.114736 1.649655 -3.584079
v 0.653385 1.661582 -3.945046
v 0.846358 1.646627 -3.330317
v 0.107963 1.658116 -2.835497
v 1.141037 1.573262 -2.391587
v 0.433325 1.573262 -2.029989
v 0.265571 -0.436818 -1.900539
v -0.113833 -0.436818 -2.752099
v -0.072249 0.303191 -2.840564
v 0.233493 0.303191 -1.880436
v -0.056532 1.043202 -2.790498
v 0.262728 0.748581 -1.898754
v -0.436585 -0.436818 -4.275617
v -0.637050 -0.436818 -5.084248
v -0.707984 0.303191 -5.036682
v -0.360088 0.303191 -4.272348
v -0.672164 0.554871 -5.060691
v -0.374234 0.697065 -4.317403
v -0.357045 1.369990 -4.277280
v -0.145313 1.566918 -3.602803
v -0.075788 1.586405 -2.885948
v -0.589908 -0.436818 -5.115808
v -0.469745 -0.436818 -3.385297
v -0.522443 0.303191 -3.465801
v -0.625063 -0.436818 -4.153716
v -0.665778 0.303191 -4.071607
v -0.469745 0.994019 -3.385297
v -0.657338 1.043202 -4.132090
v -0.444618 1.052855 -3.855016
v -0.568807 1.053298 -3.779658
v 0.064275 -0.436818 -2.390094
v 0.054643 0.303191 -2.435528
v 0.085838 0.912269 -2.425885
v 0.170578 0.912269 -2.507860
v 0.153744 1.571884 -2.524302
v 0.244227 1.647379 -2.481330
v 0.890157 1.647379 -3.190785
vt 0.519680 0.249479
vt 0.534029 0.290835
vt 0.422728 0.329452
vt 0.408379 0.288096
vt 0.665794 0.244048
vt 0.469496 0.464248
vt 0.590047 0.439617
vt 0.666031 0.325081
vt 0.115298 0.572664
vt 0.025517 0.506507
vt 0.311920 0.551444
vt 0.586671 0.512052
vt 0.339495 0.652332
vt 0.256810 0.625372
vt 0.462191 0.580989
vt 0.523445 0.629128
vt 0.439502 0.691185
vt 0.357229 0.659206
vt 0.534669 0.642602
vt 0.835082 0.758147
vt 0.461200 0.781306
vt 0.441875 0.692512
vt 0.579885 0.828392
vt 0.464115 0.840680
vt 0.589253 0.927266
vt 0.473836 0.943880
vt 0.920700 0.605297
vt 0.603223 0.830486
vt 0.803295 0.648135
vt 0.861040 0.567997
vt 0.388930 0.316783
vt 0.290821 0.330973
vt 0.939249 0.457839
vt 0.973950 0.361951
vt 0.974483 0.257453
vt 0.783580 0.418692
vt 0.842483 0.190722
vt 0.495070 0.153741
vt 0.836613 0.738857
vt 0.761949 0.718473
vt 0.193876 0.341640
vt 0.904252 0.550628
vt 0.773152 0.473525
vt 0.810299 0.206040
vt 0.568214 0.550329
vt 0.637919 0.598643
vt 0.135907 0.339128
vt 0.106679 0.274744
vt 0.811996 0.317134
vt 0.722668 0.356013
vt 0.822098 0.321905
vt 0.805897 0.421541
vt 0.755556 0.618038
vt 0.392057 0.332294
vt 0.792432 0.524135
vt 0.708532 0.704161
vt 0.069546 0.186686
vt 0.039135 0.191425
vt 0.128052 0.348198
vt 0.076466 0.282128
vt 0.916300 0.448873
vt 0.833707 0.425562
vt 0.836753 0.324023
vt 0.955304 0.354620
vt 0.895726 0.535570
vt 0.850177 0.534513
vt 0.809178 0.519778
vt 0.840745 0.552765
vt 0.049846 0.288649
vt 0.607558 0.513463
vt 0.376086 0.195023
vt 0.487934 0.156216
vt 0.696272 0.716288
vt 0.580798 0.425631
vt 0.125820 0.426867
vt 0.651681 0.237622
vt 0.549682 0.550101
vt 0.752121 0.730819
vt 0.650702 0.561308
vt 0.538104 0.243087
vt 0.543663 0.276623
vt 0.794620 0.211048
vt 0.935239 0.153741
vt 0.596260 0.772543
vt 0.869014 0.689223
vt 0.627802 0.677822
vt 0.574886 0.766187
vt 0.607461 0.927665
vt 0.201845 0.482621
vt 0.642326 0.433644
vt 0.414904 0.559023
vt 0.466088 0.482625
vt 0.661205 0.428036
vt 0.119616 0.355341
vt 0.025517 0.193568
vt 0.191519 0.366779
vt 0.184398 0.382906
vt 0.273218 0.207772
vt 0.378789 0.212508
vt 0.806419 0.319688
vt 0.882831 0.297848
vt 0.829232 0.314433
vt 0.757769 0.479147
vt 0.852251 0.325840
vt 0.761197 0.565651
vt 0.790712 0.569421
vt 0.747689 0.563976
vt 0.132571 0.194929
vt 0.101762 0.153741
vt 0.174211 0.234822
vt 0.815804 0.539274
vt 0.294707 0.366716
vn -0.556710 0.000001 -0.830707
vn -0.556720 -0.000000 -0.830700
vn -0.556721 0.000000 -0.830700
vn -0.556721 -0.000000 -0.830700
vn -0.556076 -0.048062 -0.829741
vn -0.555901 -0.054187 -0.829480
vn -0.009891 0.999842 -0.014759
vn 0.047688 0.995735 0.078978
vn 0.032545 0.997993 0.054326
vn -0.009891 0.999842 -0.014759
vn 0.048594 0.995619 0.079888
vn 0.010564 0.999909 0.008442
vn 0.006818 0.999955 0.006541
vn 0.064655 0.992235 0.106252
vn 0.063009 0.995004 0.077440
vn 0.072859 0.993082 0.092082
vn 0.072859 0.993082 0.092082
vn 0.048782 0.997221 0.056302
vn 0.454220 0.057602 0.889026
vn 0.454975 0.000000 0.890504
vn 0.454975 -0.000000 0.890504
vn 0.452724 0.099350 0.886099
vn 0.454973 -0.000003 0.890506
vn 0.454972 -0.000003 0.890506
vn 0.454971 -0.000005 0.890506
vn 0.454971 -0.000005 0.890506
vn -0.939514 -0.020626 0.341888
vn -0.942949 0.012049 0.332720
vn -0.939501 0.023814 0.341718
vn -0.935502 0.009551 0.353192
vn -0.988202 -0.036668 0.148700
vn -0.988949 -0.000000 0.148257
vn -0.988949 -0.000121 0.148259
vn -0.988202 -0.036668 0.148700
vn -0.944237 -0.007757 0.329176
vn -0.937938 0.015661 0.346449
vn -0.937679 0.016563 0.347108
vn -0.944237 -0.007757 0.329176
vn -0.945875 0.056835 0.319517
vn -0.944325 0.034909 0.327156
vn -0.984619 0.044979 0.168827
vn -0.981886 0.030679 0.186971
vn -0.919256 0.072263 0.386970
vn -0.919256 0.072263 0.386970
vn -0.925727 -0.006395 0.378139
vn -0.924404 0.025506 0.380560
vn -0.927115 0.070367 0.368112
vn -0.929173 -0.006409 0.369589
vn -0.977563 0.056305 0.202979
vn -0.974112 0.025970 0.224569
vn -0.928955 -0.002153 0.370187
vn -0.922320 -0.012688 0.386220
vn -0.930302 -0.045541 0.363956
vn -0.928955 -0.002153 0.370187
vn -0.534466 0.059954 -0.843061
vn -0.545822 0.060746 -0.835696
vn -0.562756 -0.006110 -0.826601
vn -0.571047 -0.011647 -0.820835
vn 0.590681 -0.000773 0.806905
vn 0.590769 -0.000813 0.806840
vn 0.593977 -0.002280 0.804479
vn 0.593977 -0.002280 0.804479
vn -0.523313 0.015953 -0.851991
vn -0.585485 -0.029513 -0.810146
vn 0.569573 0.061270 0.819654
vn 0.540632 0.044051 0.840105
vn -0.479623 0.092481 -0.872588
vn -0.522467 0.083099 -0.848601
vn -0.083945 0.988458 -0.126112
vn -0.016954 0.999531 -0.025507
vn -0.016998 0.999530 -0.025509
vn -0.096749 0.984690 -0.144999
vn 0.557941 0.129714 0.819680
vn 0.426046 0.139577 0.893870
vn -0.974128 -0.012665 0.225643
vn -0.974148 -0.013059 0.225535
vn -0.975323 -0.061788 0.211962
vn -0.975323 -0.061788 0.211962
vn -0.970330 0.037165 0.238912
vn -0.970330 0.037165 0.238912
vn -0.970330 0.037165 0.238912
vn -0.966204 -0.020465 0.256964
vn -0.966204 -0.020465 0.256964
vn -0.966204 -0.020465 0.256964
vn -0.154892 0.960328 -0.231901
vn -0.154548 0.960326 -0.232140
vn -0.512805 -0.389234 -0.765198
vn -0.512805 -0.389234 -0.765198
vn -0.916139 -0.071961 0.394348
vn -0.928398 -0.120533 0.351496
vn -0.819334 0.540767 0.190430
vn -0.898232 0.083683 0.431483
vn -0.911753 0.334167 0.238827
vn -0.679246 0.718406 0.150058
vn 0.098639 0.976216 0.193061
vn 0.098639 0.976216 0.193061
vn -0.566160 0.773959 0.283638
vn -0.500558 0.818886 0.280832
vn 0.172584 -0.000538 0.984995
vn 0.172570 -0.000630 0.984997
vn 0.171120 -0.009673 0.985203
vn 0.171120 -0.009673 0.985203
vn 0.148202 0.959641 0.239009
vn 0.107130 0.964121 0.242886
vn 0.107130 0.964121 0.242886
vn 0.183644 0.954413 0.235310
vn 0.174961 0.014493 0.984469
vn 0.174961 0.014493 0.984469
vn -0.556721 -0.000000 -0.830700
vn -0.556707 0.000002 -0.830709
vn -0.556611 0.000013 -0.830773
vn -0.556674 -0.000010 -0.830731
vn -0.570261 0.817092 0.084632
vn -0.570261 0.817092 0.084632
vn -0.570261 0.817092 0.084632
vn -0.570261 0.817092 0.084632
vn -0.585109 0.068435 -0.808062
vn -0.585109 0.068435 -0.808062
vn -0.155254 0.960330 -0.231650
vn -0.109705 0.980393 -0.163688
vn -0.017098 0.999528 -0.025513
vn 0.701730 0.113596 0.703329
vn 0.701730 0.113596 0.703329
vn -0.556582 0.000024 -0.830792
vn 0.556682 0.000116 0.830726
vn 0.556682 -0.000004 0.830726
vn 0.552036 0.128933 0.823792
vn 0.552036 0.128933 0.823792
vn -0.555679 0.061430 -0.829124
vn -0.556719 -0.004690 -0.830688
vn 0.551360 -0.137943 0.822784
vn 0.551360 -0.137943 0.822784
vn -0.555669 -0.061433 -0.829131
vn -0.013713 0.999611 -0.024299
vn -0.013713 0.999611 -0.024299
vn 0.046824 0.996408 0.070559
vn 0.028375 0.998729 0.041647
vn 0.083632 0.988209 0.128254
vn 0.083632 0.988209 0.128254
vn -0.935372 0.036454 0.351781
vn -0.927907 0.053414 0.368966
vn -0.942788 0.018050 0.332905
vn 0.259693 0.938816 0.226237
vn 0.259693 0.938816 0.226237
vn -0.938365 -0.006447 0.345587
s 1
g Cliff2
usemtl initialShadingGroup
f 2/1/1 4/2/2 5/3/3 3/4/4
f 4/2/2 6/74/5 7/6/6 5/3/3
s 2
f 33/75/7 36/89/8 35/9/9 34/10/10
f 37/11/11 40/91/12 39/13/13 38/14/14
f 72/15/15 42/16/16 41/17/17 73/18/18
s 4
f 10/19/19 12/87/20 13/21/21 11/22/22
f 12/87/20 14/23/23 15/24/24 13/21/21
f 14/23/23 16/25/25 17/26/26 15/24/24
s 5
f 43/27/27 46/85/28 68/29/29 67/30/30
s 6
f 20/31/31 23/32/32 30/98/33 29/99/34
s 7
f 49/35/35 52/101/36 51/37/37 50/83/38
s 5
f 46/85/28 48/39/39 69/40/40 68/29/29
s 6
f 23/32/32 25/41/41 31/110/42 30/98/33
s 7
f 52/101/36 54/102/43 53/44/44 51/37/37
s 8
f 12/86/45 10/19/46 71/45/47 70/46/48
s 6
f 25/41/41 27/47/49 32/48/50 31/110/42
s 8
f 19/49/51 8/50/52 6/5/53 4/82/54
s 10
f 49/100/55 21/51/56 22/52/57 52/36/58
s 11
f 45/112/59 23/32/60 20/31/61 44/54/62
s 10
f 52/36/58 22/52/57 24/55/63 54/43/64
s 11
f 47/96/65 25/41/66 23/32/60 45/112/59
s 10
f 54/43/64 24/55/63 26/106/67 55/105/68
s 12
f 32/48/69 27/47/70 57/59/71 56/60/72
s 11
f 57/59/73 27/47/74 25/41/66 47/96/65
s 2
f 36/89/8 37/11/11 38/14/14 35/9/9
s 13
f 60/61/75 62/62/76 61/104/77 59/64/78
f 63/65/79 66/66/80 64/67/81 62/62/76 60/61/75
s 6
f 32/48/50 26/57/82 24/109/83 65/108/84 31/110/42
s 12
f 55/58/85 26/57/86 32/48/69 56/60/72
s 1
f 34/92/87 7/6/6 6/74/5 33/7/88
s 8
f 6/5/53 8/50/52 36/8/89 33/76/90
f 37/90/91 28/93/92 9/70/93 40/12/94
s 4
f 42/16/95 10/19/19 11/22/22 41/17/96
s 8
f 72/77/97 71/45/47 10/19/46 42/16/98
f 36/8/89 8/50/52 28/93/92 37/90/91
s 14
f 14/23/99 46/28/100 43/88/101 16/25/102
s 15
f 69/40/103 48/39/104 12/20/105 70/78/106
s 14
f 12/87/107 48/84/108 46/28/100 14/23/99
s 1
f 2/1/1 3/4/4 1/71/109 58/72/110
f 2/1/1 51/80/111 53/81/112 4/2/2
s off
f 4/82/113 53/44/114 54/102/115 19/49/116
s 10
f 19/103/117 54/43/64 55/105/68 8/107/118
s 12
f 8/95/119 55/58/85 56/60/72 28/69/120
f 57/59/71 9/94/121 28/69/120 56/60/72
s 11
f 9/94/122 57/59/73 47/96/65 18/97/123
s 1
f 58/72/110 50/38/124 51/80/111 2/1/1
s 16
f 30/33/125 60/61/126 59/64/127 29/34/128
s 10
f 21/51/56 61/63/129 62/62/130 22/52/57
s 16
f 31/42/131 63/65/132 60/61/126 30/33/125
s 10
f 22/52/57 62/62/130 64/67/133 24/55/63
s 17
f 24/55/134 64/67/135 66/66/136 65/68/137
f 66/66/136 63/65/138 31/42/139 65/68/137
s 5
f 68/29/29 45/53/140 44/111/141 67/30/30
f 69/40/40 47/56/142 45/53/140 68/29/29
s 15
f 18/73/143 47/56/144 69/40/103 70/78/106
s 8
f 71/45/47 9/70/93 18/79/145 70/46/48
f 40/12/94 9/70/93 71/45/47 72/77/97
s 2
f 40/91/12 72/15/15 73/18/18 39/13/13
