# This file uses centimeters as units for non-parametric coordinates.

mtllib Cliff3.mtl
g default
v -3.292155 -0.917416 -8.812315
v -4.049780 0.088811 -7.602153
v -3.292155 0.467153 -8.812315
v -4.049780 0.914264 -7.602153
v -3.292155 0.535922 -8.812315
v -4.049780 1.719587 -7.602153
v -3.292155 1.719587 -8.812315
v -4.943683 1.539389 -8.041843
v -6.583570 1.833660 -8.388866
v -7.748411 1.789229 -8.953712
v -7.099193 1.789229 -10.222821
v -7.748414 0.854208 -8.953713
v -7.099195 0.690614 -10.222821
v -7.748411 0.088811 -8.953712
v -7.099193 0.088811 -10.222821
v -7.748412 -0.917416 -8.953714
v -7.099195 -0.917416 -10.222821
v -6.637043 0.776702 -8.408681
v -4.890206 0.698238 -8.022034
v -6.890008 -0.917416 -8.004606
v -5.143173 -0.917416 -7.617965
v -5.171859 0.088811 -7.675089
v -6.995723 0.088811 -7.955549
v -5.143173 0.880079 -7.617965
v -6.890008 0.776702 -8.004606
v -5.214585 1.539389 -7.609131
v -6.773785 1.833660 -8.085023
v -5.629225 1.807162 -8.479712
v -6.015614 -0.917416 -7.862715
v -5.905105 0.088811 -7.821769
v -6.015614 0.813203 -7.862715
v -6.013941 1.807162 -7.862092
v -4.033885 1.872426 -7.520141
v -3.190100 1.872426 -8.867936
v -4.029007 1.976051 -9.178732
v -4.811372 1.976051 -7.929045
v -5.775114 2.059406 -8.609066
v -5.219987 2.059406 -9.495776
v -5.929960 2.055288 -9.758824
v -6.690953 2.070911 -8.543285
v -7.014151 1.955530 -10.160508
v -7.605882 1.955530 -9.003746
v -7.799579 -0.917416 -8.726339
v -6.839851 -0.917416 -8.182953
v -6.722972 0.088811 -8.255864
v -7.830943 0.088811 -8.673637
v -6.780798 0.776702 -8.277282
v -7.802362 0.854208 -8.721673
v -5.047298 -0.917416 -7.779381
v -4.102081 -0.917416 -7.518616
v -4.175193 0.088811 -7.401830
v -5.035078 0.088811 -7.901303
v -4.138273 0.809374 -7.460802
v -4.983040 0.624380 -7.882024
v -5.028398 1.539389 -7.906525
v -5.807380 1.807162 -8.195146
v -6.668286 1.833660 -8.253545
v -4.053503 -0.917416 -7.596210
v -6.141864 -0.917416 -7.661059
v -6.054700 0.088811 -7.582811
v -5.236161 -0.917416 -7.469428
v -5.345087 0.088811 -7.398384
v -6.141864 0.813203 -7.661059
v -5.269419 0.880079 -7.416303
v -5.562769 0.893205 -7.735674
v -5.681146 0.893808 -7.531807
v -7.244269 -0.917416 -8.440817
v -7.190822 0.088811 -8.428764
v -7.195977 0.812709 -8.477874
v -7.077882 0.812709 -8.619230
v -7.061365 1.813914 -8.593553
v -7.094669 2.056310 -8.734886
v -6.091110 2.056310 -9.818517
vt 0.823969 0.775474
vt 0.682367 0.875306
vt 0.676185 0.870124
vt 0.592029 0.497840
vt 0.569784 0.780926
vt 0.677376 0.652583
vt 0.480904 0.471778
vt 0.547487 0.777739
vt 0.481890 0.694932
vt 0.592996 0.562397
vt 0.529946 0.234384
vt 0.403133 0.573307
vt 0.348079 0.503616
vt 0.456154 0.374694
vt 0.420128 0.336579
vt 0.335585 0.487797
vt 0.263424 0.396887
vt 0.622731 0.026062
vt 0.648418 0.020356
vt 0.245703 0.382073
vt 0.154221 0.291313
vt 0.285606 0.186122
vt 0.104110 0.241601
vt 0.221872 0.122880
vt 0.020309 0.158486
vt 0.138062 0.039768
vt 0.157309 0.020356
vt 0.955303 0.190854
vt 0.840614 0.161744
vt 0.864866 0.085282
vt 0.085832 0.520385
vt 0.202765 0.522116
vt 0.198194 0.643069
vt 0.072359 0.639919
vt 0.403946 0.576891
vt 0.807836 0.568620
vt 0.841779 0.754229
vt 0.377057 0.707241
vt 0.759815 0.133468
vt 0.305289 0.166290
vt 0.186635 0.728800
vt 0.078387 0.725305
vt 0.614039 0.504884
vt 0.344319 0.775255
vt 0.737679 0.134438
vt 0.623093 0.107424
vt 0.165748 0.851397
vt 0.093592 0.833592
vt 0.357624 0.797552
vt 0.554307 0.365140
vt 0.345069 0.692520
vt 0.380262 0.568339
vt 0.822966 0.217593
vt 0.938819 0.244532
vt 0.291328 0.780688
vt 0.748513 0.186671
vt 0.275743 0.875252
vt 0.254041 0.843957
vt 0.173486 0.898093
vt 0.084816 0.852080
vt 0.227792 0.644106
vt 0.237318 0.525977
vt 0.357636 0.559961
vt 0.308156 0.673921
vt 0.204424 0.717444
vt 0.277051 0.758480
vt 0.240794 0.741097
vt 0.237054 0.765010
vt 0.604978 0.165544
vt 0.182966 0.938104
vt 0.914948 0.850671
vt 0.806827 0.979644
vt 0.726470 0.190845
vt 0.595628 0.089100
vt 0.370765 0.288689
vt 0.695319 0.529468
vt 0.771763 0.706183
vt 0.749768 0.713270
vt 0.921847 0.842441
vt 0.779469 0.058813
vt 0.245994 0.098563
vt 0.754266 0.047550
vt 0.977362 0.121086
vt 0.499361 0.369673
vt 0.481968 0.479268
vt 0.580812 0.139449
vt 0.363469 0.263366
vt 0.729640 0.417984
vt 0.667700 0.405627
vt 0.647180 0.399123
vt 0.841390 0.458605
vt 0.023361 0.643574
vt 0.041787 0.739288
vt 0.020309 0.754999
vt 0.061868 0.517715
vt 0.551824 0.264715
vt 0.076680 0.867910
vt 0.288298 0.890353
vt 0.501332 0.471420
vt 0.667316 0.634800
vn 0.847597 -0.000001 0.530641
vn 0.847597 -0.000000 0.530641
vn 0.847597 0.000000 0.530641
vn 0.847597 -0.000000 0.530641
vn 0.845689 -0.067060 0.529446
vn 0.845972 -0.061889 0.529623
vn 0.099574 0.993076 0.062338
vn 0.099574 0.993076 0.062338
vn 0.082066 0.995302 0.051377
vn 0.078645 0.995686 0.049236
vn 0.034905 0.999220 0.018465
vn 0.042819 0.998783 0.024494
vn -0.000476 0.999967 -0.008151
vn -0.004464 0.999930 -0.010951
vn -0.086714 0.994211 -0.063449
vn -0.069879 0.996153 -0.052879
vn -0.106900 0.991352 -0.076119
vn -0.106900 0.991352 -0.076119
vn -0.888686 0.059720 -0.454611
vn -0.887396 0.080362 -0.453951
vn -0.890275 -0.000000 -0.455424
vn -0.890275 0.000000 -0.455424
vn -0.890275 -0.000000 -0.455424
vn -0.890275 -0.000000 -0.455424
vn -0.890275 0.000002 -0.455424
vn -0.890275 0.000002 -0.455424
vn -0.405433 -0.024954 0.913784
vn -0.420900 0.011799 0.907030
vn -0.401650 0.029984 0.915302
vn -0.387320 0.014424 0.921832
vn -0.138795 -0.043916 0.989347
vn -0.138795 -0.043916 0.989347
vn -0.139391 -0.000780 0.990237
vn -0.139391 -0.000790 0.990237
vn -0.388125 -0.009392 0.921559
vn -0.388125 -0.009392 0.921559
vn -0.423702 0.017689 0.905629
vn -0.422969 0.017124 0.905982
vn -0.372075 0.052359 0.926725
vn -0.362267 0.066342 0.929710
vn -0.211519 0.035687 0.976722
vn -0.179042 0.056512 0.982217
vn -0.479488 0.061618 0.875382
vn -0.479488 0.061618 0.875382
vn -0.455573 -0.007919 0.890163
vn -0.437185 -0.007162 0.899343
vn -0.439882 0.073758 0.895022
vn -0.460895 0.052691 0.885889
vn -0.245429 0.023726 0.969124
vn -0.217891 0.050446 0.974669
vn -0.443406 -0.003617 0.896314
vn -0.443406 -0.003617 0.896314
vn -0.443386 -0.063017 0.894113
vn -0.474023 -0.023472 0.880199
vn 0.856225 0.052726 0.513906
vn 0.847248 -0.011385 0.531075
vn 0.847648 -0.005964 0.530526
vn 0.850967 0.053524 0.522485
vn -0.830432 -0.000830 -0.557119
vn -0.828998 -0.002030 -0.559248
vn -0.828998 -0.002030 -0.559248
vn -0.830357 -0.000893 -0.557232
vn 0.843424 -0.011134 0.537134
vn 0.855353 0.003029 0.518038
vn -0.842190 0.052717 -0.536598
vn -0.865876 0.041897 -0.498501
vn 0.851904 0.066049 0.519516
vn 0.862814 0.068980 0.500793
vn 0.150344 0.984188 0.093648
vn 0.166444 0.980565 0.103872
vn 0.029497 0.999396 0.018387
vn 0.029493 0.999397 0.018349
vn -0.843273 0.080573 -0.531412
vn -0.895903 0.085250 -0.435994
vn -0.243322 -0.016536 0.969805
vn -0.226114 -0.074496 0.971248
vn -0.226114 -0.074496 0.971248
vn -0.243105 -0.017289 0.969846
vn -0.263906 0.057206 0.962851
vn -0.263906 0.057206 0.962851
vn -0.263906 0.057206 0.962851
vn -0.287733 -0.018110 0.957540
vn -0.287733 -0.018110 0.957540
vn -0.287733 -0.018110 0.957540
vn 0.265297 0.949831 0.165649
vn 0.265521 0.949809 0.165412
vn 0.794185 -0.349374 0.497199
vn 0.794185 -0.349374 0.497199
vn -0.438673 -0.180627 0.880307
vn -0.497809 -0.093861 0.862192
vn -0.153747 0.380396 0.911955
vn -0.134121 0.485903 0.863661
vn -0.247076 0.241982 0.938295
vn -0.423380 0.153667 0.892825
vn -0.754629 0.530581 -0.386029
vn -0.754629 0.530581 -0.386029
vn -0.426459 0.446816 0.786440
vn -0.447575 0.474522 0.757962
vn -0.966685 -0.000423 -0.255967
vn -0.966966 -0.008397 -0.254768
vn -0.966966 -0.008397 -0.254768
vn -0.966687 -0.000457 -0.255962
vn 0.054781 0.997930 0.033677
vn 0.055347 0.997733 0.038297
vn 0.053683 0.998252 0.024735
vn 0.053683 0.998252 0.024735
vn -0.966226 0.009958 -0.257502
vn -0.966226 0.009958 -0.257502
vn 0.847597 -0.000001 0.530641
vn 0.847597 -0.000001 0.530641
vn 0.847598 -0.000000 0.530639
vn 0.847596 -0.000001 0.530642
vn -0.367019 0.873925 0.318673
vn -0.367019 0.873925 0.318673
vn -0.367019 0.873925 0.318673
vn -0.367019 0.873925 0.318673
vn 0.831362 0.060726 0.552403
vn 0.831362 0.060726 0.552403
vn 0.265035 0.949856 0.165925
vn 0.185969 0.975633 0.116426
vn 0.029507 0.999394 0.018473
vn -0.757444 0.072842 -0.648824
vn -0.757444 0.072842 -0.648824
vn 0.847594 -0.000002 0.530645
vn -0.847599 0.000388 -0.530637
vn -0.842080 0.113937 -0.527182
vn -0.842080 0.113937 -0.527182
vn -0.847599 0.000325 -0.530637
vn 0.847595 -0.004575 0.530624
vn 0.846358 0.054209 0.529849
vn -0.837045 -0.157319 -0.524030
vn -0.837045 -0.157319 -0.524030
vn 0.845591 -0.068873 0.529370
vn 0.027971 0.999490 0.015386
vn -0.050860 0.998188 -0.032166
vn -0.078932 0.995670 -0.049096
vn 0.027971 0.999490 0.015386
vn -0.147730 0.984871 -0.090582
vn -0.147730 0.984871 -0.090582
vn -0.441872 0.064457 0.894759
vn -0.420366 0.049934 0.905980
vn -0.388403 0.028684 0.921043
vn 0.057395 0.996830 0.055100
vn 0.057395 0.996830 0.055100
vn -0.411974 -0.006131 0.911175
s 1
g Cliff3
usemtl initialShadingGroup
f 2/1/1 3/2/2 5/3/3 4/78/4
f 4/78/4 5/3/3 7/5/5 6/6/6
s 2
f 33/100/7 34/8/8 35/9/9 36/10/10
f 37/85/11 38/12/12 39/13/13 40/14/14
f 72/15/15 73/16/16 41/17/17 42/75/18
s 3
f 10/87/19 11/20/20 13/21/21 12/22/22
f 12/22/22 13/21/21 15/23/23 14/24/24
f 14/24/24 15/23/23 17/25/25 16/26/26
s 4
f 43/83/27 67/28/28 68/29/29 46/30/30
s 5
f 20/31/31 29/32/32 30/33/33 23/34/34
s 6
f 49/91/35 50/36/36 51/76/37 52/88/38
s 4
f 46/30/30 68/29/29 69/39/39 48/80/40
s 5
f 23/34/34 30/33/33 31/41/41 25/42/42
s 6
f 52/88/38 51/76/37 53/43/43 54/89/44
s 7
f 12/82/45 70/45/46 71/46/47 10/19/48
s 5
f 25/42/42 31/41/41 32/47/49 27/48/50
s 7
f 19/90/51 4/4/52 6/99/53 8/50/54
s 9
f 49/35/55 52/38/56 22/51/57 21/52/58
s 10
f 45/92/59 44/95/60 20/31/61 23/34/62
s 9
f 52/38/56 54/44/63 24/55/64 22/51/57
s 10
f 47/93/65 45/92/59 23/34/62 25/42/66
s 9
f 54/44/63 55/57/67 26/58/68 24/55/64
s 11
f 32/47/69 56/59/70 57/60/71 27/48/72
s 10
f 57/60/73 47/93/65 25/42/66 27/48/74
s 2
f 36/10/10 35/9/9 38/12/12 37/85/11
s 12
f 60/61/75 59/62/76 61/63/77 62/64/78
f 63/65/79 60/61/75 62/64/78 64/66/80 66/67/81
s 5
f 32/47/49 31/41/41 65/68/82 24/55/83 26/58/84
s 11
f 55/57/85 56/59/70 32/47/69 26/58/86
s 1
f 34/8/87 33/100/88 6/6/6 7/5/5
s 7
f 6/99/53 33/7/89 36/84/90 8/50/54
f 37/11/91 40/86/92 9/69/93 28/96/94
s 3
f 42/75/95 41/17/96 11/20/20 10/87/19
s 7
f 72/74/97 42/18/98 10/19/48 71/46/47
f 36/84/90 37/11/91 28/96/94 8/50/54
s 14
f 14/24/99 16/26/100 43/27/101 46/81/102
s 15
f 69/39/103 70/45/104 12/82/105 48/80/106
s 14
f 12/22/107 14/24/99 46/81/102 48/40/108
s 1
f 2/1/1 58/71/109 1/72/110 3/2/2
f 2/1/1 4/78/4 53/77/111 51/37/112
s off
f 4/4/113 19/90/114 54/89/115 53/43/116
s 9
f 19/49/117 8/98/118 55/57/67 54/44/63
s 11
f 8/98/119 28/70/120 56/59/70 55/57/85
f 57/60/71 56/59/70 28/70/120 9/97/121
s 10
f 9/97/122 18/94/123 47/93/65 57/60/73
s 1
f 58/71/109 2/1/1 51/37/112 50/79/124
s 16
f 30/33/125 29/32/126 59/62/127 60/61/128
s 9
f 21/52/58 22/51/57 62/64/129 61/63/130
s 16
f 31/41/131 30/33/125 60/61/128 63/65/132
s 9
f 22/51/57 24/55/64 64/66/133 62/64/129
s 17
f 24/55/134 65/68/135 66/67/136 64/66/137
f 66/67/136 65/68/135 31/41/138 63/65/139
s 4
f 68/29/29 67/28/28 44/54/140 45/53/141
f 69/39/39 68/29/29 45/53/141 47/56/142
s 15
f 18/73/143 70/45/104 69/39/103 47/56/144
s 7
f 71/46/47 70/45/46 18/73/145 9/69/93
f 40/86/92 72/74/97 71/46/47 9/69/93
s 2
f 40/14/14 39/13/13 73/16/16 72/15/15
