# This file uses centimeters as units for non-parametric coordinates.

mtllib MidBackCliff1.mtl
g default
v 5.019286 0.193028 5.190175
v 2.021066 1.666893 5.235085
v 5.130776 1.666893 5.235085
v 2.021066 2.300726 5.235085
v 5.130776 2.321796 5.820041
v 2.021066 4.055563 5.235085
v 5.114389 4.055563 5.174944
v 3.507049 3.791618 2.773293
v 2.963547 4.222649 -1.774574
v 1.981876 4.157570 -5.415250
v 5.146580 4.157570 -5.353595
v 1.981876 2.553967 -5.415250
v 5.130743 2.548380 -5.353601
v 1.981876 1.666893 -5.309469
v 5.130743 1.666893 -5.353601
v 1.981876 0.193028 -5.309473
v 5.130743 0.193028 -5.353601
v 2.963547 3.140759 -1.935904
v 3.507049 2.305776 3.553484
v 2.243634 0.193028 -1.982317
v 2.468728 0.193028 2.934623
v 2.565707 1.666893 2.776798
v 2.059607 1.666893 -2.165972
v 2.468728 3.140759 2.934623
v 2.243634 3.140759 -1.982317
v 2.395098 3.791618 2.773293
v 2.182790 4.222649 -1.774574
v 3.890576 4.183838 0.423189
v 2.623418 0.193028 0.376489
v 2.623418 1.666893 0.709895
v 2.623418 3.042803 0.376489
v 2.305010 4.183838 0.427967
v 2.227433 4.279433 5.454836
v 5.308752 4.279433 5.320872
v 3.168809 4.431217 3.203452
v 4.062980 4.578951 -0.321101
v 6.847109 4.578951 -0.321101
v 6.585273 4.571581 -2.133786
v 2.768707 4.599542 -2.133786
v 5.342191 4.393039 -5.353598
v 1.834397 4.393039 -5.415246
v 1.468071 0.193028 -5.086174
v 2.335997 0.193028 -2.086496
v 2.578393 1.666893 -1.912045
v 1.333906 1.666893 -5.082202
v 2.578393 3.140759 -2.086496
v 1.456181 2.553967 -5.085830
v 2.160680 0.193028 3.302289
v 1.643503 0.193028 5.843789
v 1.506321 1.666893 5.235085
v 2.424455 1.666893 3.145303
v 1.657833 2.168160 5.235085
v 2.424455 2.451365 3.302289
v 3.159324 3.791618 2.773293
v 3.159319 4.183838 0.423188
v 2.615823 4.222649 -1.774574
v 1.842896 0.193028 5.258833
v 2.092700 0.193028 0.378317
v 1.996830 1.666893 0.711723
v 2.392933 0.193028 2.890038
v 2.160548 1.666893 2.732212
v 2.092700 3.042803 0.378317
v 2.256418 3.140759 2.890038
v 2.389989 3.159986 1.726631
v 2.179155 3.160869 1.704692
v 2.561314 0.193028 -3.472189
v 2.389678 1.666893 -3.295452
v 2.488129 2.879983 -3.383368
v 3.062037 2.879983 -3.338250
v 3.021244 4.193728 -3.258433
v 2.875824 4.573411 -3.700731
v 6.585254 4.573411 -2.727813
v 2.227433 5.319770 5.454836
v 5.308752 5.319770 5.320872
v 3.157531 5.471554 3.199781
v 6.585279 5.619287 0.483393
v 3.801151 5.619287 0.483393
v 2.764842 5.808713 4.841758
v 5.086185 5.808713 4.740836
v 5.392395 5.923061 2.982638
v 3.628628 5.923061 3.195968
v 6.047870 6.034358 1.096470
v 3.950418 6.034358 1.096470
vt 0.185426 0.556392
vt 0.075330 0.439620
vt 0.106656 0.406874
vt 0.388928 0.551186
vt 0.184795 0.352015
vt 0.281353 0.479182
vt 0.343464 0.380610
vt 0.269484 0.286237
vt 0.328267 0.215086
vt 0.379136 0.291369
vt 0.077006 0.668277
vt 0.434050 0.025624
vt 0.608551 0.227636
vt 0.438071 0.326300
vt 0.483374 0.393528
vt 0.623906 0.254170
vt 0.636534 0.403858
vt 0.735603 0.025624
vt 0.747260 0.034595
vt 0.634177 0.419479
vt 0.676409 0.490992
vt 0.824231 0.071459
vt 0.700004 0.529887
vt 0.879610 0.065449
vt 0.739455 0.594920
vt 0.600499 0.679215
vt 0.949840 0.116703
vt 0.925750 0.219281
vt 0.847771 0.204034
vt 0.876781 0.101694
vt 0.424242 0.665487
vt 0.557642 0.674328
vt 0.556048 0.753205
vt 0.408737 0.740156
vt 0.760695 0.758866
vt 0.479949 0.459778
vt 0.203656 0.575716
vt 0.718513 0.833955
vt 0.787703 0.177029
vt 0.840133 0.096574
vt 0.533432 0.826223
vt 0.409815 0.817610
vt 0.402725 0.536753
vt 0.696105 0.877239
vt 0.759685 0.171157
vt 0.697398 0.151486
vt 0.519279 0.891001
vt 0.419635 0.865036
vt 0.728226 0.934693
vt 0.238791 0.628094
vt 0.699350 0.822805
vt 0.734038 0.748605
vt 0.822597 0.272096
vt 0.900477 0.288603
vt 0.653943 0.892796
vt 0.750654 0.238146
vt 0.631286 0.943855
vt 0.629612 0.908721
vt 0.512016 0.936760
vt 0.411666 0.881735
vt 0.380318 0.125959
vt 0.148577 0.747985
vt 0.584303 0.759093
vt 0.594249 0.679612
vt 0.729246 0.745958
vt 0.680534 0.810794
vt 0.552435 0.818246
vt 0.649620 0.882335
vt 0.599310 0.852536
vt 0.595222 0.862601
vt 0.189856 0.335730
vt 0.288056 0.460999
vt 0.265587 0.662478
vt 0.669305 0.223738
vt 0.505914 0.974733
vt 0.136406 0.615290
vt 0.023908 0.496009
vt 0.727779 0.235648
vt 0.232110 0.302606
vt 0.330311 0.427875
vt 0.264355 0.716852
vt 0.119896 0.721947
vt 0.391294 0.080038
vt 0.256862 0.749929
vt 0.450736 0.208169
vt 0.484767 0.189163
vt 0.350239 0.740413
vt 0.390607 0.712966
vt 0.449027 0.211870
vt 0.392573 0.659994
vt 0.386644 0.641783
vt 0.687155 0.121712
vt 0.481544 0.497457
vt 0.417988 0.514436
vt 0.217109 0.552279
vt 0.209225 0.533949
vt 0.154121 0.641813
vt 0.654454 0.198380
vt 0.494341 0.503927
vt 0.314050 0.458982
vt 0.301497 0.498318
vt 0.273257 0.548759
vt 0.361482 0.397431
vt 0.379362 0.741014
vt 0.389991 0.824824
vt 0.369044 0.841017
vt 0.416404 0.665007
vt 0.656571 0.347680
vt 0.403238 0.896161
vt 0.633142 0.962217
vt 0.116795 0.648447
vt 0.629223 0.312044
vt 0.527522 0.134748
vt 0.573387 0.139899
vt 0.561048 0.614181
vt 0.958015 0.087399
vt 0.537123 0.574770
vn 0.034371 -0.109610 0.993380
vn -0.021161 -0.145873 0.989077
vn -0.086800 0.017105 0.996079
vn -0.084722 0.010586 0.996348
vn -0.067439 0.029050 0.997300
vn -0.075785 0.105995 0.991475
vn 0.005296 0.997613 0.068845
vn 0.005296 0.997613 0.068845
vn 0.003906 0.998132 0.060966
vn 0.004425 0.997946 0.063905
vn 0.004236 0.999989 0.001829
vn 0.004236 0.999989 0.001829
vn 0.004583 0.999985 -0.003110
vn 0.004703 0.999977 -0.004830
vn 0.010937 0.997477 -0.070150
vn 0.008678 0.998852 -0.047101
vn 0.012834 0.995902 -0.089529
vn 0.012834 0.995902 -0.089529
vn 0.019344 -0.000405 -0.999813
vn 0.019333 -0.000423 -0.999813
vn 0.013585 -0.021201 -0.999683
vn 0.013584 -0.021204 -0.999683
vn -0.007734 -0.022422 -0.999719
vn -0.007738 -0.022407 -0.999719
vn -0.014013 0.000001 -0.999902
vn -0.014013 0.000001 -0.999902
vn -0.839290 -0.119583 0.530370
vn -0.938746 -0.067264 0.337982
vn -0.948945 0.003767 0.315418
vn -0.852437 -0.023735 0.522292
vn -0.981706 -0.070278 0.176961
vn -0.981706 -0.070278 0.176961
vn -0.984022 -0.000399 0.178045
vn -0.984022 -0.000000 0.178049
vn -0.954566 -0.035850 -0.295836
vn -0.954566 -0.035850 -0.295836
vn -0.949033 0.008581 -0.315061
vn -0.947609 0.017756 -0.318939
vn -0.948454 0.080702 0.306467
vn -0.857299 0.112004 0.502487
vn -0.992541 -0.043815 0.113769
vn -0.988262 -0.020530 0.151382
vn -0.915261 0.153340 -0.372538
vn -0.915261 0.153340 -0.372538
vn -0.893081 -0.024778 0.449213
vn -0.947030 -0.021774 0.320407
vn -0.964963 -0.092371 0.245589
vn -0.890215 -0.034326 0.454245
vn -0.985939 -0.160610 0.046140
vn -0.978535 -0.178881 0.102330
vn -0.808903 -0.137615 -0.571610
vn -0.808903 -0.137615 -0.571610
vn -0.834748 -0.050515 -0.548310
vn -0.881052 -0.135507 -0.453195
vn -0.852567 0.048769 -0.520338
vn -0.913056 0.024863 -0.407077
vn -0.945518 0.010939 0.325387
vn -0.994510 0.104585 -0.003363
vn 0.198739 -0.007729 -0.980022
vn 0.237980 -0.007745 -0.971239
vn 0.237980 -0.007745 -0.971239
vn 0.200326 -0.007730 -0.979699
vn -0.968157 -0.006690 -0.250253
vn -0.507827 -0.104434 0.855105
vn 0.091649 0.121218 -0.988386
vn 0.050189 0.090709 -0.994612
vn -0.113216 0.431611 0.894927
vn -0.114139 0.426481 0.897266
vn -0.125244 0.361870 0.923777
vn -0.125244 0.361870 0.923777
vn 0.000303 0.994907 0.100798
vn 0.000176 0.995038 0.099497
vn 0.000041 0.999844 0.017638
vn 0.000065 0.999845 0.017628
vn 0.033661 0.221200 -0.974647
vn -0.130844 0.230179 -0.964312
vn 0.003123 0.998396 0.056525
vn 0.003123 0.998396 0.056525
vn -0.996005 -0.023658 0.086109
vn -0.988079 -0.116055 0.101147
vn -0.988079 -0.116055 0.101147
vn -0.995983 -0.024214 0.086201
vn -0.995108 0.069497 0.070214
vn -0.995108 0.069497 0.070214
vn -0.995108 0.069497 0.070214
vn -0.990358 -0.135613 -0.028302
vn -0.990358 -0.135613 -0.028302
vn -0.990358 -0.135613 -0.028302
vn 0.000292 0.986342 0.164710
vn 0.000486 0.986332 0.164772
vn 0.024006 -0.645179 0.763654
vn 0.024006 -0.645179 0.763654
vn -0.912799 0.053743 -0.404858
vn -0.945041 -0.001227 -0.326949
vn -0.981855 0.189571 0.004925
vn -0.984348 -0.111448 0.136523
vn -0.957583 0.227228 0.177209
vn -0.984266 -0.108632 -0.139355
vn 0.018476 -0.001884 -0.999828
vn 0.018476 -0.001884 -0.999828
vn -0.914873 -0.169788 0.366304
vn -0.876541 -0.075575 0.475357
vn -0.387967 -0.019507 -0.921467
vn -0.361543 -0.015198 -0.932231
vn -0.361543 -0.015198 -0.932231
vn -0.387097 -0.019364 -0.921836
vn -0.018182 0.986991 -0.159743
vn -0.003053 0.985830 -0.167720
vn -0.038510 0.988095 -0.148945
vn -0.038510 0.988095 -0.148945
vn -0.428405 -0.026173 -0.903208
vn -0.428405 -0.026173 -0.903208
vn 0.101629 0.015535 0.994701
vn 0.010921 -0.008252 0.999906
vn -0.000001 0.000001 1.000000
vn 0.501342 0.124350 0.856267
vn -0.004362 0.997037 0.076797
vn -0.004362 0.997037 0.076797
vn -0.004362 0.997037 0.076797
vn -0.004362 0.997037 0.076797
vn -0.111433 0.441430 0.890350
vn -0.111433 0.441430 0.890349
vn -0.000000 0.986357 0.164618
vn -0.000000 0.994872 0.101145
vn -0.000000 0.999844 0.017656
vn 0.196949 0.206227 -0.958479
vn 0.196949 0.206227 -0.958479
vn 0.625982 0.155264 0.764224
vn -0.003159 -0.000003 -0.999995
vn -0.003081 0.220541 -0.975373
vn -0.003081 0.220541 -0.975373
vn -0.003159 0.000334 -0.999995
vn -0.159629 -0.019949 0.986976
vn -0.181447 0.096463 0.978658
vn -0.003071 -0.235399 -0.971894
vn -0.003071 -0.235399 -0.971894
vn -0.142134 -0.105446 0.984215
vn -0.000502 0.999864 0.016466
vn 0.002147 0.998681 -0.051306
vn 0.002388 0.998343 -0.057489
vn -0.000502 0.999864 0.016466
vn 0.003556 0.996170 -0.087361
vn 0.003556 0.996170 -0.087361
vn -0.999586 0.025569 -0.013212
vn -0.998562 0.035393 0.040258
vn -0.994022 0.046086 0.098980
vn 0.038662 0.981127 -0.189459
vn 0.038662 0.981127 -0.189459
vn -0.998534 -0.011682 -0.052863
vn 0.043435 0.000000 0.999056
vn 0.043435 0.000000 0.999056
vn 0.043435 0.000000 0.999056
vn 0.043435 0.000000 0.999056
vn -0.920791 0.080681 -0.381621
vn -0.939638 0.182958 -0.289148
vn -0.000000 0.611732 -0.791065
vn -0.000000 0.611732 -0.791065
vn -0.000000 0.611732 -0.791065
vn -0.000000 0.611732 -0.791065
vn -0.971392 0.051915 -0.231739
vn 0.027739 0.769518 0.638023
vn 0.027739 0.769518 0.638023
vn 0.027739 0.769518 0.638023
vn 0.027739 0.769518 0.638023
vn -0.742302 0.598903 -0.300503
vn -0.760180 0.622518 -0.186005
vn -0.000000 0.828069 -0.560626
vn -0.000000 0.828069 -0.560626
vn -0.000000 0.828069 -0.560626
vn -0.000000 0.828069 -0.560626
vn -0.765622 0.632097 -0.119481
s 1
g MidBackCliff1
usemtl initialShadingGroup
f 2/1/1 3/2/2 5/3/3 4/96/4
f 4/96/4 5/3/3 7/5/5 6/6/6
s 2
f 78/7/7 79/8/8 80/9/9 81/10/10
s 3
f 36/89/11 37/114/12 38/13/13 39/14/14
f 71/15/15 72/16/16 40/17/17 41/93/18
s 4
f 10/99/19 11/20/20 13/21/21 12/117/22
f 12/117/22 13/21/21 15/23/23 14/115/24
f 14/115/24 15/23/23 17/25/25 16/26/26
s 5
f 42/27/27 66/28/28 67/29/29 45/30/30
s 6
f 20/31/31 29/32/32 30/33/33 23/34/34
s 7
f 48/103/35 49/36/36 50/94/37 51/100/38
s 5
f 45/30/30 67/29/29 68/39/39 47/40/40
s 6
f 23/34/34 30/33/33 31/41/41 25/42/42
s 7
f 51/100/38 50/94/37 52/43/43 53/101/44
s 8
f 12/22/45 69/45/46 70/46/47 10/19/48
s 6
f 25/42/42 31/41/41 32/47/49 27/48/50
s 8
f 19/102/51 4/4/52 6/91/53 8/50/54
s 10
f 48/35/55 51/38/56 22/51/57 21/52/58
s 11
f 44/104/59 43/107/60 20/31/61 23/34/62
s 10
f 51/38/56 53/44/63 24/55/64 22/51/57
s 11
f 46/105/65 44/104/59 23/34/62 25/42/66
s 12
f 53/44/67 54/57/68 26/58/69 24/55/70
s 13
f 32/47/71 55/59/72 56/60/73 27/48/74
s 11
f 56/60/75 46/105/65 25/42/66 27/48/76
s 2
f 81/10/10 80/9/9 82/61/77 83/85/78
s 14
f 59/63/79 58/64/80 60/65/81 61/66/82
f 62/67/83 59/63/79 61/66/82 63/68/84 65/69/85
s 6
f 32/47/49 31/41/41 64/70/86 24/55/87 26/58/88
s 13
f 54/57/89 55/59/72 32/47/71 26/58/90
s 1
f 34/71/91 33/72/92 6/6/6 7/5/5
s 8
f 6/91/53 33/90/93 35/73/94 8/50/54
f 36/112/95 39/98/96 9/74/97 28/108/98
s 4
f 41/93/99 40/17/100 11/20/20 10/99/19
s 8
f 71/92/101 41/18/102 10/19/48 70/46/47
f 35/73/94 36/11/95 28/111/98 8/50/54
s 16
f 14/24/103 16/116/104 42/27/105 45/30/106
s 17
f 68/39/107 69/45/108 12/22/109 47/40/110
s 16
f 12/22/111 14/24/103 45/30/106 47/40/112
s 1
f 2/1/1 57/76/113 1/77/114 3/2/2
f 2/1/1 4/96/4 52/95/115 50/37/116
s off
f 4/4/117 19/102/118 53/101/119 52/43/120
s 12
f 19/49/121 8/110/122 54/57/68 53/44/67
s 13
f 8/110/123 28/75/124 55/59/72 54/57/89
f 56/60/73 55/59/72 28/75/124 9/109/125
s 11
f 9/109/126 18/106/127 46/105/65 56/60/75
s 1
f 57/76/113 2/1/1 50/37/116 49/97/128
s 18
f 30/33/129 29/32/130 58/64/131 59/63/132
s 10
f 21/52/58 22/51/57 61/66/133 60/65/134
s 18
f 31/41/135 30/33/129 59/63/132 62/67/136
s 10
f 22/51/57 24/55/64 63/68/137 61/66/133
s 19
f 24/55/138 64/70/139 65/69/140 63/68/141
f 65/69/140 64/70/139 31/41/142 62/67/143
s 5
f 67/29/29 66/28/28 43/54/144 44/53/145
f 68/39/39 67/29/29 44/53/145 46/56/146
s 17
f 18/78/147 69/45/108 68/39/107 46/56/148
s 8
f 70/46/47 69/45/46 18/78/149 9/74/97
f 39/98/96 71/92/101 70/46/47 9/74/97
s 3
f 39/14/14 38/13/13 72/16/16 71/15/15
s off
f 33/72/150 34/71/151 74/79/152 73/80/153
s 8
f 35/73/94 33/90/93 73/88/154 75/81/155
s off
f 37/12/156 36/113/157 77/86/158 76/83/159
s 8
f 36/11/95 35/73/94 75/81/155 77/82/160
s off
f 73/80/161 74/79/162 79/8/163 78/7/164
s 8
f 75/81/155 73/88/154 78/87/165 81/84/166
s off
f 76/83/167 77/86/168 83/85/169 82/61/170
s 8
f 77/82/160 75/81/155 81/84/166 83/62/171
