# This file uses centimeters as units for non-parametric coordinates.

mtllib RockLarge.mtl
g default
v -2.759455 -0.365212 -7.277726
v -2.535712 -0.365212 -7.703534
v -3.007350 1.931256 -7.310532
v -2.764235 1.931256 -7.820499
v -3.489929 1.983908 -7.629711
v -3.279832 2.057620 -8.070427
v -3.771903 -0.365212 -7.666622
v -3.465163 -0.365212 -8.250381
v -2.859424 1.721609 -7.184132
v -2.552680 1.721609 -7.767883
v -3.417840 1.721609 -8.149087
v -3.654770 1.721609 -7.698197
v -2.871924 0.504454 -7.316287
v -2.616807 0.504454 -7.801793
v -3.458562 0.504454 -8.177377
v -3.767549 0.504454 -7.589360
v -3.269475 2.015866 -7.402311
v -2.986570 2.183984 -7.995759
v -2.975371 1.721609 -7.991391
v -3.038248 0.504454 -8.024638
v -2.971811 -0.365212 -7.989516
v -3.278556 -0.365212 -7.405756
v -3.344993 0.504454 -7.440885
v -3.282112 1.721609 -7.407638
v -2.555608 -0.365212 -7.499312
v -3.654621 -0.365212 -8.056170
v -3.643854 0.504454 -7.978817
v -3.568443 1.721609 -8.001336
v -3.396402 2.036559 -7.921546
v -3.098217 2.183984 -7.761554
v -2.824936 1.915461 -7.597532
v -2.611039 1.721609 -7.504357
v -2.664006 0.504454 -7.581909
vt 0.904031 0.639289
vt 0.960388 0.556862
vt 0.254968 0.106620
vt 0.192389 0.082887
vt 0.687681 0.685985
vt 0.796195 0.708390
vt 0.114436 0.084968
vt 0.063827 0.128668
vt 0.603448 0.615375
vt 0.063440 0.213940
vt 0.163222 0.165337
vt 0.664418 0.573880
vt 0.767903 0.549569
vt 0.786679 0.613764
vt 0.717418 0.625638
vt 0.919071 0.243037
vt 0.394593 0.362926
vt 0.292724 0.422915
vt 0.195987 0.475197
vt 0.510686 0.319311
vt 0.607393 0.291342
vt 0.715603 0.269555
vt 0.894705 0.030044
vt 0.523026 0.531914
vt 0.412864 0.594867
vt 0.294483 0.661929
vt 0.234667 0.688851
vt 0.555031 0.089930
vt 0.692200 0.061869
vt 0.821921 0.038234
vt 0.837529 0.251425
vt 0.871503 0.538645
vt 0.841217 0.586671
vt 0.441494 0.333047
vt 0.565267 0.505911
vt 0.297127 0.061946
vt 0.212151 0.030044
vt 0.091311 0.032131
vt 0.021566 0.121173
vt 0.015371 0.227512
vt 0.136120 0.502389
vt 0.457565 0.110003
vn 0.604675 0.736024 0.304364
vn 0.881293 0.082016 0.465399
vn 0.969128 0.110524 0.220399
vn 0.643233 0.743831 0.181569
vn -0.398348 0.916840 0.026883
vn 0.073512 0.975814 0.205872
vn 0.215058 0.973038 0.083351
vn -0.360065 0.918397 -0.164011
vn -0.878437 0.138693 -0.457289
vn -0.772355 0.510887 -0.377441
vn -0.675176 0.461631 -0.575355
vn -0.720403 0.127795 -0.681680
vn 0.387205 0.067323 -0.919532
vn 0.408962 0.017510 -0.912383
vn 0.331579 0.014587 -0.943315
vn 0.294314 0.042097 -0.954781
vn -0.502790 0.067452 0.861773
vn -0.440352 0.017704 0.897650
vn -0.552427 0.111418 0.826081
vn -0.657112 0.110655 0.745626
vn 0.887630 0.010753 0.460433
vn 0.981300 0.010303 0.192207
vn 0.427522 0.005884 -0.903986
vn 0.372038 0.020495 -0.927991
vn -0.887868 0.049615 -0.457416
vn -0.719509 0.049891 -0.692689
vn -0.449353 0.017091 0.893191
vn -0.384505 -0.002026 0.923121
vn 0.873982 0.138423 0.465826
vn 0.980227 0.122916 0.155072
vn 0.464584 0.004216 -0.885519
vn 0.412159 0.034008 -0.910477
vn -0.879488 0.049398 -0.473351
vn -0.721895 0.066750 -0.688776
vn -0.407755 -0.036655 0.912355
vn -0.323373 -0.008852 0.946230
vn 0.465794 0.814131 0.346738
vn 0.611615 0.748446 0.256430
vn 0.476091 0.010700 -0.879331
vn 0.554312 0.113824 -0.824489
vn 0.486345 -0.009937 -0.873711
vn 0.510158 -0.022661 -0.859782
vn -0.246719 0.015674 0.968960
vn -0.311122 -0.021861 0.950119
vn -0.365566 -0.039056 0.929966
vn -0.404485 0.109559 0.907959
vn -0.955154 0.047559 -0.292265
vn -0.954765 0.034555 -0.295345
vn -0.948478 0.151423 -0.278316
vn -0.822526 0.531806 -0.201578
vn 0.030480 0.949530 0.312191
vn -0.413632 0.900080 0.136982
vn 0.364919 0.841641 0.398089
vn 0.791713 0.089475 0.604306
vn 0.571882 0.723362 0.386909
vn 0.779952 0.004126 0.625825
vn 0.756183 0.140541 0.639090
s 1
g RockLarge
usemtl initialShadingGroup
f 31/37/1 32/36/2 10/3/3 4/4/4
s 2
f 29/39/5 30/38/6 18/7/7 6/8/8
s 3
f 28/40/9 29/39/10 6/8/11 11/10/12
s 4
f 18/7/13 19/11/14 11/10/15 6/8/16
s 5
f 12/12/17 24/13/18 17/14/19 5/15/20
s 1
f 32/36/2 33/34/21 14/17/22 10/3/3
s 4
f 19/11/14 20/18/23 15/19/24 11/10/15
s 3
f 27/41/25 28/40/9 11/10/12 15/19/26
s 5
f 16/21/27 23/22/28 24/13/18 12/12/17
s 1
f 33/34/21 25/35/29 2/24/30 14/17/22
s 4
f 20/18/23 21/25/31 8/26/32 15/19/24
s 3
f 26/27/33 27/41/25 15/19/26 8/26/34
s 5
f 7/28/35 22/29/36 23/22/28 16/21/27
s 2
f 30/38/6 31/37/37 4/4/38 18/7/7
s 4
f 10/3/39 19/11/14 18/7/13 4/4/40
f 14/17/41 20/18/23 19/11/14 10/3/39
f 2/24/42 21/25/31 20/18/23 14/17/41
s 5
f 23/22/28 22/29/36 1/30/43 13/31/44
f 24/13/18 23/22/28 13/31/44 9/32/45
f 17/14/19 24/13/18 9/32/45 3/33/46
s 3
f 16/21/47 27/20/25 26/42/33 7/28/48
f 12/12/49 28/9/9 27/20/25 16/21/47
f 5/15/50 29/5/10 28/9/9 12/12/49
s 2
f 17/14/51 30/6/6 29/5/5 5/15/52
f 3/33/53 31/1/37 30/6/6 17/14/51
s 1
f 9/32/54 32/2/2 31/1/1 3/33/55
f 13/31/56 33/16/21 32/2/2 9/32/54
f 1/30/57 25/23/29 33/16/21 13/31/56
