# This file uses centimeters as units for non-parametric coordinates.

mtllib RockSmall.mtl
g default
v -4.085029 -0.655968 -8.034691
v -4.272883 -0.655968 -7.580959
v -3.998107 0.124419 -8.075573
v -4.219424 0.124419 -7.541002
v -3.095660 0.150386 -7.681253
v -3.286922 0.189915 -7.219289
v -3.005194 -0.655968 -7.730689
v -3.262738 -0.655968 -7.108631
v -3.991506 -0.005894 -8.139043
v -4.249046 -0.005894 -7.516986
v -3.321455 -0.005894 -7.207445
v -3.122529 -0.005894 -7.687921
v -3.965535 -0.385055 -8.005652
v -4.179736 -0.385055 -7.488280
v -3.276768 -0.385055 -7.182339
v -3.017342 -0.385055 -7.808942
v -3.536300 0.257445 -7.950575
v -3.793841 0.257445 -7.328515
v -3.792162 -0.005894 -7.327817
v -3.724195 -0.385055 -7.299683
v -3.796005 -0.655968 -7.329413
v -3.538460 -0.655968 -7.951470
v -3.466649 -0.385055 -7.921739
v -3.534614 -0.005894 -7.949877
v -4.272690 -0.655968 -7.790629
v -3.087160 -0.655968 -7.323506
v -3.105912 -0.385055 -7.401272
v -3.181229 -0.005894 -7.371505
v -3.147528 0.179955 -7.371054
v -3.692204 0.257445 -7.574007
v -4.197438 0.116873 -7.779025
v -4.215179 -0.005894 -7.790528
v -4.153013 -0.385055 -7.716397
vt 0.043621 0.313952
vt 0.043505 0.375304
vt 0.325930 0.848148
vt 0.346082 0.886531
vt 0.426676 0.049989
vt 0.190288 0.101260
vt 0.500079 0.868787
vt 0.655460 0.806097
vt 0.507908 0.088407
vt 0.638644 0.738971
vt 0.474789 0.774696
vt 0.445817 0.197067
vt 0.310473 0.315803
vt 0.268495 0.232786
vt 0.412971 0.156065
vt 0.074171 0.535391
vt 0.278586 0.714895
vt 0.456010 0.638091
vt 0.629743 0.597749
vt 0.633824 0.195253
vt 0.537950 0.315769
vt 0.398283 0.421075
vt 0.099512 0.651772
vt 0.190323 0.637727
vt 0.392741 0.553791
vt 0.612799 0.492125
vt 0.719403 0.494253
vt 0.620645 0.379470
vt 0.428004 0.523532
vt 0.219581 0.624501
vt 0.213250 0.511703
vt 0.176108 0.373298
vt 0.161963 0.329172
vt 0.196287 0.764631
vt 0.117620 0.676028
vt 0.254306 0.920795
vt 0.304237 0.956062
vt 0.526455 0.967515
vt 0.720304 0.832893
vt 0.721143 0.746670
vt 0.738473 0.599090
vt 0.739120 0.250749
vn -0.908875 0.192747 -0.369858
vn -0.911548 -0.121672 -0.392780
vn -0.987465 -0.105611 -0.117302
vn -0.977999 0.177623 -0.109398
vn 0.159035 0.986962 0.024787
vn -0.045891 0.998216 -0.038203
vn -0.075835 0.996941 -0.018905
vn 0.122093 0.991297 0.049223
vn 0.911538 0.072094 0.404847
vn 0.904870 -0.154353 0.396719
vn 0.742155 -0.112964 0.660640
vn 0.767005 0.053059 0.639443
vn -0.312069 0.061885 0.948042
vn -0.322976 0.031281 0.945890
vn -0.240711 0.035468 0.969949
vn -0.225624 0.042730 0.973277
vn 0.446755 0.116310 -0.887064
vn 0.362683 0.015330 -0.931786
vn 0.425671 0.063176 -0.902670
vn 0.526929 -0.019538 -0.849685
vn -0.929296 0.040106 -0.367151
vn -0.994836 0.019291 -0.099644
vn -0.335508 0.024951 0.941707
vn -0.286151 0.069194 0.955683
vn 0.921225 0.161659 0.353852
vn 0.768000 0.164872 0.618865
vn 0.361102 0.045611 -0.931410
vn 0.304613 -0.002377 -0.952473
vn -0.831176 0.421642 -0.362443
vn -0.923199 0.380107 -0.056761
vn -0.385778 0.002355 0.922589
vn -0.323945 0.110805 0.939565
vn 0.897896 0.167259 0.407194
vn 0.762878 0.216475 0.609225
vn 0.319176 -0.119340 -0.940151
vn 0.225236 -0.018570 -0.974127
vn -0.239923 0.965632 -0.099957
vn -0.248516 0.965433 -0.078607
vn -0.397185 0.030116 0.917244
vn -0.423494 0.086672 0.901743
vn -0.402649 -0.033904 0.914727
vn -0.425699 -0.074137 0.901823
vn 0.157656 0.051301 -0.986161
vn 0.219322 -0.065595 -0.973445
vn 0.284039 -0.057035 -0.957115
vn 0.299238 0.156394 -0.941274
vn 0.967534 0.155273 0.199421
vn 0.972407 0.114056 0.203510
vn 0.975497 0.103639 0.194072
vn 0.968122 -0.175120 0.179090
vn -0.031890 0.998093 -0.052851
vn 0.178668 0.983840 0.011694
vn -0.234605 0.965502 -0.112988
vn -0.831249 -0.141961 -0.537469
vn -0.821227 0.195011 -0.536244
vn -0.833208 -0.011990 -0.552830
vn -0.740038 0.425880 -0.520547
s 1
g RockSmall
usemtl initialShadingGroup
f 31/37/1 32/36/2 10/3/3 4/4/4
s 2
f 29/39/5 30/38/6 18/7/7 6/8/8
s 3
f 28/40/9 29/39/10 6/8/11 11/10/12
s 4
f 18/7/13 19/11/14 11/10/15 6/8/16
s 5
f 12/12/17 24/13/18 17/14/19 5/15/20
s 1
f 32/36/2 33/34/21 14/17/22 10/3/3
s 4
f 19/11/14 20/18/23 15/19/24 11/10/15
s 3
f 27/41/25 28/40/9 11/10/12 15/19/26
s 5
f 16/21/27 23/22/28 24/13/18 12/12/17
s 1
f 33/34/21 25/35/29 2/24/30 14/17/22
s 4
f 20/18/23 21/25/31 8/26/32 15/19/24
s 3
f 26/27/33 27/41/25 15/19/26 8/26/34
s 5
f 7/28/35 22/29/36 23/22/28 16/21/27
s 2
f 30/38/6 31/37/37 4/4/38 18/7/7
s 4
f 10/3/39 19/11/14 18/7/13 4/4/40
f 14/17/41 20/18/23 19/11/14 10/3/39
f 2/24/42 21/25/31 20/18/23 14/17/41
s 5
f 23/22/28 22/29/36 1/30/43 13/31/44
f 24/13/18 23/22/28 13/31/44 9/32/45
f 17/14/19 24/13/18 9/32/45 3/33/46
s 3
f 16/21/47 27/20/25 26/42/33 7/28/48
f 12/12/49 28/9/9 27/20/25 16/21/47
f 5/15/50 29/5/10 28/9/9 12/12/49
s 2
f 17/14/51 30/6/6 29/5/5 5/15/52
f 3/33/53 31/1/37 30/6/6 17/14/51
s 1
f 9/32/54 32/2/2 31/1/1 3/33/55
f 13/31/56 33/16/21 32/2/2 9/32/54
f 1/30/57 25/23/29 33/16/21 13/31/56
