# This file uses centimeters as units for non-parametric coordinates.

mtllib RockMid.mtl
g default
v -1.204070 -0.335485 -4.931754
v -0.816470 -0.335485 -5.216585
v -1.412573 0.752712 -5.069787
v -0.970699 0.752712 -5.421816
v -1.706665 0.777662 -5.568051
v -1.324803 0.812591 -5.872273
v -1.944007 -0.335485 -5.724709
v -1.412623 -0.335485 -6.115212
v -1.334928 0.653370 -4.891382
v -0.803543 0.653370 -5.281879
v -1.414432 0.653370 -6.003426
v -1.824876 0.653370 -5.701805
v -1.288299 0.076612 -5.015663
v -0.846346 0.076612 -5.340444
v -1.438655 0.076612 -6.046689
v -1.973923 0.076612 -5.653338
v -1.608043 0.792805 -5.267078
v -1.093846 0.872469 -5.676733
v -1.085688 0.653370 -5.667905
v -1.127659 0.076612 -5.725325
v -1.083314 -0.335485 -5.664653
v -1.614697 -0.335485 -5.274157
v -1.659044 0.076612 -5.334826
v -1.617073 0.653370 -5.277402
v -0.923774 -0.335485 -5.041706
v -1.667991 -0.335485 -6.023571
v -1.692182 0.076612 -5.949316
v -1.614525 0.653370 -5.936537
v -1.494794 0.802611 -5.789469
v -1.296771 0.872469 -5.515066
v -1.122906 0.745228 -5.247930
v -0.971403 0.653370 -5.070512
v -0.985062 0.076612 -5.163424
vt 0.511257 0.418668
vt 0.564899 0.344782
vt 0.309261 0.551068
vt 0.253450 0.558534
vt 0.291131 0.487733
vt 0.411685 0.486410
vt 0.188296 0.593655
vt 0.135711 0.645933
vt 0.210677 0.455951
vt 0.127143 0.704780
vt 0.223339 0.634874
vt 0.266252 0.386496
vt 0.373055 0.340323
vt 0.384570 0.376000
vt 0.315769 0.405716
vt 0.562161 0.157525
vt 0.410846 0.675057
vt 0.306696 0.770819
vt 0.202011 0.845913
vt 0.103166 0.307473
vt 0.200311 0.239964
vt 0.316888 0.190963
vt 0.553325 0.029990
vt 0.520329 0.742304
vt 0.400657 0.847007
vt 0.267888 0.948067
vt 0.195669 0.980516
vt 0.135894 0.140185
vt 0.299812 0.073571
vt 0.462662 0.035426
vt 0.458275 0.158895
vt 0.471336 0.320374
vt 0.443584 0.356272
vt 0.458220 0.623537
vt 0.563818 0.699619
vt 0.341807 0.487191
vt 0.252517 0.491013
vt 0.148644 0.536359
vt 0.082764 0.635998
vt 0.072740 0.718728
vt 0.130774 0.877499
vt 0.020977 0.203095
vn 0.242044 0.916699 0.317928
vn 0.578382 0.164907 0.798924
vn 0.759364 0.226296 0.610047
vn 0.292359 0.920069 0.260766
vn -0.185880 0.979483 -0.077860
vn -0.013027 0.994056 0.108088
vn 0.073907 0.994091 0.079509
vn -0.127342 0.979792 -0.154249
vn -0.567457 0.276707 -0.775517
vn -0.387633 0.782976 -0.486506
vn -0.269494 0.739400 -0.616977
vn -0.339479 0.269624 -0.901142
vn 0.750510 0.145830 -0.644568
vn 0.768586 0.036783 -0.638688
vn 0.712391 0.027729 -0.701235
vn 0.680591 0.088593 -0.727287
vn -0.819129 0.137579 0.556867
vn -0.787667 0.033214 0.615205
vn -0.835321 0.230198 0.499247
vn -0.898458 0.228743 0.374765
vn 0.600708 0.024158 0.799103
vn 0.797549 0.016941 0.603016
vn 0.778214 0.014191 -0.627838
vn 0.740963 0.043893 -0.670110
vn -0.602340 0.103906 -0.791448
vn -0.342121 0.105361 -0.933730
vn -0.793974 0.032754 0.607069
vn -0.752339 -0.002968 0.658770
vn 0.558359 0.283201 0.779765
vn 0.792933 0.252882 0.554353
vn 0.807380 0.005296 -0.590008
vn 0.767697 0.071619 -0.636799
vn -0.571782 0.105490 -0.813596
vn -0.344762 0.139792 -0.928223
vn -0.764313 -0.077180 0.640210
vn -0.701400 -0.015410 0.712601
vn 0.146311 0.947512 0.284280
vn 0.255438 0.922022 0.290908
vn 0.811080 0.014970 -0.584744
vn 0.840763 0.235020 -0.487732
vn 0.819949 -0.021456 -0.572034
vn 0.834387 -0.047801 -0.549103
vn -0.645820 0.033055 0.762774
vn -0.694005 -0.044089 0.718619
vn -0.732443 -0.091488 0.674654
vn -0.745917 0.226542 0.626328
vn -0.727904 0.099691 -0.678393
vn -0.727546 0.072772 -0.682189
vn -0.704952 0.300557 -0.642423
vn -0.463179 0.798241 -0.385067
vn -0.055325 0.988101 0.143515
vn -0.221597 0.974685 -0.029745
vn 0.082823 0.956755 0.278856
vn 0.440179 0.201116 0.875097
vn 0.205755 0.911127 0.357088
vn 0.427839 0.000263 0.903855
vn 0.387007 0.286954 0.876289
s 1
g RockMid
usemtl initialShadingGroup
f 31/37/1 32/36/2 10/3/3 4/4/4
s 2
f 29/39/5 30/38/6 18/7/7 6/8/8
s 3
f 28/40/9 29/39/10 6/8/11 11/10/12
s 4
f 18/7/13 19/11/14 11/10/15 6/8/16
s 5
f 12/12/17 24/13/18 17/14/19 5/15/20
s 1
f 32/36/2 33/34/21 14/17/22 10/3/3
s 4
f 19/11/14 20/18/23 15/19/24 11/10/15
s 3
f 27/41/25 28/40/9 11/10/12 15/19/26
s 5
f 16/21/27 23/22/28 24/13/18 12/12/17
s 1
f 33/34/21 25/35/29 2/24/30 14/17/22
s 4
f 20/18/23 21/25/31 8/26/32 15/19/24
s 3
f 26/27/33 27/41/25 15/19/26 8/26/34
s 5
f 7/28/35 22/29/36 23/22/28 16/21/27
s 2
f 30/38/6 31/37/37 4/4/38 18/7/7
s 4
f 10/3/39 19/11/14 18/7/13 4/4/40
f 14/17/41 20/18/23 19/11/14 10/3/39
f 2/24/42 21/25/31 20/18/23 14/17/41
s 5
f 23/22/28 22/29/36 1/30/43 13/31/44
f 24/13/18 23/22/28 13/31/44 9/32/45
f 17/14/19 24/13/18 9/32/45 3/33/46
s 3
f 16/21/47 27/20/25 26/42/33 7/28/48
f 12/12/49 28/9/9 27/20/25 16/21/47
f 5/15/50 29/5/10 28/9/9 12/12/49
s 2
f 17/14/51 30/6/6 29/5/5 5/15/52
f 3/33/53 31/1/37 30/6/6 17/14/51
s 1
f 9/32/54 32/2/2 31/1/1 3/33/55
f 13/31/56 33/16/21 32/2/2 9/32/54
f 1/30/57 25/23/29 33/16/21 13/31/56
