# This file uses centimeters as units for non-parametric coordinates.

mtllib SteppingStone2.mtl
g default
v -6.130041 -0.518273 -1.439217
v -5.233294 -0.518273 -0.939473
v -6.095874 -0.210978 -1.242803
v -5.386223 -0.210978 -0.743059
v -6.095874 -0.210978 1.641810
v -5.379148 -0.210978 1.713305
v -6.130041 -0.518273 1.884613
v -5.260927 -0.518273 1.911754
v -6.911205 -0.483162 1.414222
v -6.911205 -0.483162 -1.657429
v -6.758275 -0.240751 -1.394459
v -6.758275 -0.240751 1.561346
vt 0.105874 0.201134
vt 0.170186 0.247607
vt 0.337745 0.426142
vt 0.546981 0.943321
vt 0.858662 0.308584
vt 0.871709 0.460866
vt 0.944259 0.280080
vt 0.955125 0.475346
vt 0.829871 0.108543
vt 0.844071 0.172132
vt 0.222354 0.110302
vt 0.172655 0.042404
vt 0.241391 0.261815
vt 0.129237 0.431598
vt 0.519033 0.862157
vt 0.044863 0.415648
vn 0.322604 0.569380 -0.756130
vn 0.367197 0.560573 -0.742243
vn 0.443991 0.541904 -0.713591
vn 0.443991 0.541904 -0.713591
vn -0.029468 0.999566 0.000000
vn -0.021063 0.999778 0.000000
vn 0.000000 1.000000 0.000000
vn 0.000000 1.000000 0.000000
vn -0.175173 0.462258 0.869271
vn -0.167616 0.469855 0.866684
vn -0.050663 0.577883 0.814545
vn -0.050663 0.577884 0.814545
vn 0.914903 0.403658 0.003544
vn 0.914903 0.403658 0.003544
vn 0.914903 0.403658 0.003544
vn 0.914903 0.403658 0.003544
vn -0.845759 0.533565 0.000000
vn -0.845759 0.533565 0.000000
vn -0.845759 0.533565 0.000000
vn -0.845759 0.533565 0.000000
vn 0.203107 0.586261 -0.784249
vn 0.203107 0.586261 -0.784249
vn -0.044902 0.998991 0.000000
vn -0.044902 0.998991 0.000000
vn -0.342101 0.272938 0.899151
vn -0.342101 0.272938 0.899151
s 1
g SteppingStone2
usemtl initialShadingGroup
f 1/1/1 3/2/2 4/14/3 2/16/4
s 2
f 3/13/5 5/5/6 6/6/7 4/3/8
s 3
f 5/5/9 7/7/10 8/8/11 6/6/12
s off
f 2/4/13 4/15/14 6/6/15 8/8/16
f 9/9/17 12/10/18 11/11/19 10/12/20
s 1
f 1/1/1 10/12/21 11/11/22 3/2/2
s 2
f 3/13/5 11/11/23 12/10/24 5/5/6
s 3
f 5/5/9 12/10/25 9/9/26 7/7/10
