# This file uses centimeters as units for non-parametric coordinates.

mtllib SteppingStone3.mtl
g default
v -7.769245 -0.518273 1.886125
v -6.872499 -0.518273 1.647747
v -7.735079 -0.210978 1.886123
v -7.025428 -0.210978 1.647745
v -7.735080 -0.210978 -0.915296
v -6.885143 -0.210978 -0.913661
v -7.769245 -0.518273 -1.142084
v -6.766922 -0.518273 -1.099021
v -8.550409 -0.483162 -1.080145
v -8.550409 -0.483162 1.886121
v -8.397480 -0.240751 1.886119
v -8.397480 -0.240751 -0.834520
vt 0.805097 0.187721
vt 0.830527 0.390160
vt 0.758198 0.374734
vt 0.745118 0.221351
vt 0.657137 0.911340
vt 0.136536 0.425565
vt 0.717606 0.964377
vt 0.057294 0.406278
vt 0.092762 0.244395
vt 0.685681 0.035623
vt 0.695165 0.096357
vt 0.161978 0.285662
vt 0.194929 0.426817
vt 0.259344 0.596113
vt 0.109919 0.604529
vt 0.030679 0.618174
vn 0.154278 0.029821 0.987577
vn 0.284090 0.054904 0.957224
vn 0.284090 0.054904 0.957224
vn 0.173902 0.033613 0.984189
vn -0.023602 0.999722 -0.000000
vn 0.000000 1.000000 -0.000000
vn 0.000000 1.000000 -0.000000
vn -0.020129 0.999797 -0.000000
vn -0.017909 0.604388 -0.796489
vn 0.020008 0.558739 -0.829102
vn 0.020008 0.558739 -0.829102
vn -0.021724 0.608833 -0.793001
vn 0.918762 0.392513 0.042555
vn 0.918762 0.392513 0.042555
vn 0.918762 0.392513 0.042555
vn 0.918762 0.392513 0.042555
vn -0.845761 0.533562 0.000000
vn -0.845761 0.533562 0.000000
vn -0.845761 0.533562 0.000000
vn -0.845761 0.533562 0.000000
vn -0.000005 0.000009 1.000000
vn -0.000005 0.000009 1.000000
vn -0.044902 0.998991 0.000000
vn -0.044902 0.998991 0.000000
vn -0.071138 0.663941 -0.744394
vn -0.071138 0.663941 -0.744394
s 1
g SteppingStone3
usemtl initialShadingGroup
f 1/1/1 2/2/2 4/3/3 3/4/4
s 2
f 3/4/5 4/3/6 6/14/7 5/13/8
s 3
f 5/6/9 6/15/10 8/16/11 7/8/12
s off
f 2/2/13 8/7/14 6/5/15 4/3/16
f 9/9/17 10/10/18 11/11/19 12/12/20
s 1
f 1/1/1 3/4/4 11/11/21 10/10/22
s 2
f 3/4/5 5/13/8 12/12/23 11/11/24
s 3
f 5/6/9 7/8/12 9/9/25 12/12/26
